<?xml version="1.0" encoding="utf-8" standalone="no"?>
<!DOCTYPE svg PUBLIC "-//W3C//DTD SVG 1.1//EN"
  "http://www.w3.org/Graphics/SVG/1.1/DTD/svg11.dtd">
<!-- Created with matplotlib (https://matplotlib.org/) -->
<svg height="246.965pt" version="1.1" viewBox="0 0 366.2 246.965" width="366.2pt" xmlns="http://www.w3.org/2000/svg" xmlns:xlink="http://www.w3.org/1999/xlink">
 <metadata>
  <rdf:RDF xmlns:cc="http://creativecommons.org/ns#" xmlns:dc="http://purl.org/dc/elements/1.1/" xmlns:rdf="http://www.w3.org/1999/02/22-rdf-syntax-ns#">
   <cc:Work>
    <dc:type rdf:resource="http://purl.org/dc/dcmitype/StillImage"/>
    <dc:date>2021-05-20T04:23:30.153390</dc:date>
    <dc:format>image/svg+xml</dc:format>
    <dc:creator>
     <cc:Agent>
      <dc:title>Matplotlib v3.3.2, https://matplotlib.org/</dc:title>
     </cc:Agent>
    </dc:creator>
   </cc:Work>
  </rdf:RDF>
 </metadata>
 <defs>
  <style type="text/css">*{stroke-linecap:butt;stroke-linejoin:round;}</style>
 </defs>
 <g id="figure_1">
  <g id="patch_1">
   <path d="M 0 246.965 
L 366.2 246.965 
L 366.2 0 
L 0 0 
z
"/>
  </g>
  <g id="axes_1">
   <g id="patch_2">
    <path d="M 24.2 224.64 
L 359 224.64 
L 359 7.2 
L 24.2 7.2 
z
"/>
   </g>
   <g id="matplotlib.axis_1">
    <g id="xtick_1">
     <g id="line2d_1">
      <defs>
       <path d="M 0 0 
L 0 3.5 
" id="mbb280e7bb2" style="stroke:#ffffff;stroke-width:0.8;"/>
      </defs>
      <g>
       <use style="fill:#ffffff;stroke:#ffffff;stroke-width:0.8;" x="57.68" xlink:href="#mbb280e7bb2" y="224.64"/>
      </g>
     </g>
     <g id="text_1">
      <!-- 2009 -->
      <g style="fill:#ffffff;" transform="translate(47.68 238.515)scale(0.1 -0.1)">
       <defs>
        <path d="M 4.6875 3.90625 
Q 5.078125 9.765625 10.15625 14.453125 
Q 15.234375 19.140625 23.046875 29.09375 
Q 30.859375 39.0625 33.203125 44.53125 
Q 35.546875 50 34.953125 53.90625 
Q 34.375 57.8125 31.25 60.34375 
Q 28.125 62.890625 24.015625 62.5 
Q 19.921875 62.109375 16.203125 59.375 
Q 12.5 56.640625 10.546875 51.171875 
L 3.125 52.34375 
Q 6.25 61.328125 11.125 65.421875 
Q 16.015625 69.53125 22.65625 69.921875 
Q 26.5625 70.3125 29.6875 69.71875 
Q 32.8125 69.140625 36.125 66.984375 
Q 39.453125 64.84375 41.59375 60.546875 
Q 43.75 56.25 43.15625 50.1875 
Q 42.578125 44.140625 37.109375 35.734375 
Q 31.640625 27.34375 16.015625 9.375 
L 44.140625 9.375 
L 44.140625 2.34375 
L 4.6875 2.34375 
z
" id="SimHei-50"/>
        <path d="M 3.125 29.296875 
Q 3.90625 50 6.4375 56.046875 
Q 8.984375 62.109375 13.671875 66.015625 
Q 18.359375 69.921875 25.1875 69.921875 
Q 32.03125 69.921875 37.109375 64.25 
Q 42.1875 58.59375 43.75 50 
Q 45.3125 41.40625 44.71875 30.265625 
Q 44.140625 19.140625 40.8125 12.109375 
Q 37.5 5.078125 30.859375 2.34375 
Q 24.21875 -0.390625 17.578125 2.921875 
Q 10.9375 6.25 8.203125 11.71875 
Q 5.46875 17.1875 4.296875 23.234375 
Q 3.125 29.296875 3.90625 50 
z
M 12.890625 52.734375 
Q 10.546875 31.25 12.5 22.84375 
Q 14.453125 14.453125 18.9375 10.9375 
Q 23.4375 7.421875 28.125 9.5625 
Q 32.8125 11.71875 34.953125 18.15625 
Q 37.109375 24.609375 37.109375 32.21875 
Q 37.109375 39.84375 36.515625 46.09375 
Q 35.9375 52.34375 33 57.421875 
Q 30.078125 62.5 25.1875 62.6875 
Q 20.3125 62.890625 16.59375 57.8125 
Q 12.890625 52.734375 10.546875 31.25 
z
" id="SimHei-48"/>
        <path d="M 12.5 1.171875 
Q 21.09375 15.625 26.5625 27.34375 
Q 16.796875 25.78125 10.34375 29.875 
Q 3.90625 33.984375 2.53125 41.015625 
Q 1.171875 48.046875 2.734375 53.703125 
Q 4.296875 59.375 7.609375 63.078125 
Q 10.9375 66.796875 15.625 68.359375 
Q 20.3125 69.921875 24.015625 69.921875 
Q 27.734375 69.921875 31.640625 68.359375 
Q 35.546875 66.796875 38.671875 63.671875 
Q 41.796875 60.546875 42.96875 57.21875 
Q 44.140625 53.90625 44.140625 48.625 
Q 44.140625 43.359375 40.234375 35.15625 
Q 36.328125 26.953125 21.09375 1.171875 
z
M 9.765625 50 
Q 10.9375 39.84375 14.640625 36.515625 
Q 18.359375 33.203125 22.65625 33.59375 
Q 26.953125 33.984375 29.484375 35.9375 
Q 32.03125 37.890625 34.375 42.578125 
Q 35.9375 48.4375 35.15625 52.53125 
Q 34.375 56.640625 31.046875 59.375 
Q 27.734375 62.109375 23.828125 62.109375 
Q 21.484375 62.5 17.765625 60.9375 
Q 14.0625 59.375 11.90625 54.6875 
Q 9.765625 50 10.9375 39.84375 
z
" id="SimHei-57"/>
       </defs>
       <use xlink:href="#SimHei-50"/>
       <use x="50" xlink:href="#SimHei-48"/>
       <use x="100" xlink:href="#SimHei-48"/>
       <use x="150" xlink:href="#SimHei-57"/>
      </g>
     </g>
    </g>
    <g id="xtick_2">
     <g id="line2d_2">
      <g>
       <use style="fill:#ffffff;stroke:#ffffff;stroke-width:0.8;" x="124.64" xlink:href="#mbb280e7bb2" y="224.64"/>
      </g>
     </g>
     <g id="text_2">
      <!-- 2010 -->
      <g style="fill:#ffffff;" transform="translate(114.64 238.515)scale(0.1 -0.1)">
       <defs>
        <path d="M 21.875 56.25 
Q 16.796875 51.171875 8.984375 46.484375 
L 8.984375 53.90625 
Q 18.75 60.546875 25 69.53125 
L 29.6875 69.53125 
L 29.6875 2.34375 
L 21.875 2.34375 
z
" id="SimHei-49"/>
       </defs>
       <use xlink:href="#SimHei-50"/>
       <use x="50" xlink:href="#SimHei-48"/>
       <use x="100" xlink:href="#SimHei-49"/>
       <use x="150" xlink:href="#SimHei-48"/>
      </g>
     </g>
    </g>
    <g id="xtick_3">
     <g id="line2d_3">
      <g>
       <use style="fill:#ffffff;stroke:#ffffff;stroke-width:0.8;" x="191.6" xlink:href="#mbb280e7bb2" y="224.64"/>
      </g>
     </g>
     <g id="text_3">
      <!-- 2011 -->
      <g style="fill:#ffffff;" transform="translate(181.6 238.515)scale(0.1 -0.1)">
       <use xlink:href="#SimHei-50"/>
       <use x="50" xlink:href="#SimHei-48"/>
       <use x="100" xlink:href="#SimHei-49"/>
       <use x="150" xlink:href="#SimHei-49"/>
      </g>
     </g>
    </g>
    <g id="xtick_4">
     <g id="line2d_4">
      <g>
       <use style="fill:#ffffff;stroke:#ffffff;stroke-width:0.8;" x="258.56" xlink:href="#mbb280e7bb2" y="224.64"/>
      </g>
     </g>
     <g id="text_4">
      <!-- 2012 -->
      <g style="fill:#ffffff;" transform="translate(248.56 238.515)scale(0.1 -0.1)">
       <use xlink:href="#SimHei-50"/>
       <use x="50" xlink:href="#SimHei-48"/>
       <use x="100" xlink:href="#SimHei-49"/>
       <use x="150" xlink:href="#SimHei-50"/>
      </g>
     </g>
    </g>
    <g id="xtick_5">
     <g id="line2d_5">
      <g>
       <use style="fill:#ffffff;stroke:#ffffff;stroke-width:0.8;" x="325.52" xlink:href="#mbb280e7bb2" y="224.64"/>
      </g>
     </g>
     <g id="text_5">
      <!-- all -->
      <g style="fill:#ffffff;" transform="translate(318.02 238.515)scale(0.1 -0.1)">
       <defs>
        <path d="M 44.921875 1.953125 
L 35.546875 1.953125 
Q 34.765625 2.734375 34.375 4.09375 
Q 33.984375 5.46875 33.984375 7.421875 
Q 31.25 4.296875 27.34375 2.734375 
Q 23.4375 1.171875 19.140625 1.171875 
Q 12.890625 1.171875 8.59375 4.296875 
Q 4.296875 7.421875 4.296875 13.28125 
Q 4.296875 19.140625 8.203125 22.65625 
Q 12.109375 26.171875 20.3125 27.34375 
Q 25.78125 28.125 29.875 29.296875 
Q 33.984375 30.46875 33.984375 32.421875 
Q 33.984375 34.765625 32.21875 37.109375 
Q 30.46875 39.453125 24.609375 39.453125 
Q 19.921875 39.453125 17.765625 37.6875 
Q 15.625 35.9375 14.84375 32.8125 
L 6.25 32.8125 
Q 7.03125 39.0625 11.90625 42.765625 
Q 16.796875 46.484375 24.609375 46.484375 
Q 33.203125 46.484375 37.5 42.578125 
Q 41.796875 38.671875 41.796875 31.640625 
L 41.796875 10.15625 
Q 41.796875 7.8125 42.578125 5.859375 
Q 43.359375 3.90625 44.921875 1.953125 
z
M 33.984375 16.40625 
L 33.984375 24.21875 
Q 31.640625 23.4375 29.484375 22.84375 
Q 27.34375 22.265625 22.265625 21.484375 
Q 16.40625 20.703125 14.640625 18.75 
Q 12.890625 16.796875 12.890625 14.0625 
Q 12.890625 11.71875 14.640625 9.953125 
Q 16.40625 8.203125 19.921875 8.203125 
Q 23.4375 8.203125 27.53125 10.15625 
Q 31.640625 12.109375 33.984375 16.40625 
z
" id="SimHei-97"/>
        <path d="M 28.515625 1.953125 
L 20.703125 1.953125 
L 20.703125 68.75 
L 28.515625 68.75 
z
" id="SimHei-108"/>
       </defs>
       <use xlink:href="#SimHei-97"/>
       <use x="50" xlink:href="#SimHei-108"/>
       <use x="100" xlink:href="#SimHei-108"/>
      </g>
     </g>
    </g>
   </g>
   <g id="matplotlib.axis_2">
    <g id="ytick_1">
     <g id="line2d_6">
      <defs>
       <path d="M 0 0 
L -3.5 0 
" id="m1e4e539e06" style="stroke:#ffffff;stroke-width:0.8;"/>
      </defs>
      <g>
       <use style="fill:#ffffff;stroke:#ffffff;stroke-width:0.8;" x="24.2" xlink:href="#m1e4e539e06" y="214.756364"/>
      </g>
     </g>
     <g id="text_6">
      <!-- 0 -->
      <g style="fill:#ffffff;" transform="translate(12.2 218.193864)scale(0.1 -0.1)">
       <use xlink:href="#SimHei-48"/>
      </g>
     </g>
    </g>
    <g id="ytick_2">
     <g id="line2d_7">
      <g>
       <use style="fill:#ffffff;stroke:#ffffff;stroke-width:0.8;" x="24.2" xlink:href="#m1e4e539e06" y="182.873666"/>
      </g>
     </g>
     <g id="text_7">
      <!-- 10 -->
      <g style="fill:#ffffff;" transform="translate(7.2 186.311166)scale(0.1 -0.1)">
       <use xlink:href="#SimHei-49"/>
       <use x="50" xlink:href="#SimHei-48"/>
      </g>
     </g>
    </g>
    <g id="ytick_3">
     <g id="line2d_8">
      <g>
       <use style="fill:#ffffff;stroke:#ffffff;stroke-width:0.8;" x="24.2" xlink:href="#m1e4e539e06" y="150.990968"/>
      </g>
     </g>
     <g id="text_8">
      <!-- 20 -->
      <g style="fill:#ffffff;" transform="translate(7.2 154.428468)scale(0.1 -0.1)">
       <use xlink:href="#SimHei-50"/>
       <use x="50" xlink:href="#SimHei-48"/>
      </g>
     </g>
    </g>
    <g id="ytick_4">
     <g id="line2d_9">
      <g>
       <use style="fill:#ffffff;stroke:#ffffff;stroke-width:0.8;" x="24.2" xlink:href="#m1e4e539e06" y="119.10827"/>
      </g>
     </g>
     <g id="text_9">
      <!-- 30 -->
      <g style="fill:#ffffff;" transform="translate(7.2 122.54577)scale(0.1 -0.1)">
       <defs>
        <path d="M 3.90625 19.140625 
L 10.9375 20.3125 
Q 12.5 15.234375 16.015625 11.90625 
Q 19.53125 8.59375 24.796875 8.78125 
Q 30.078125 8.984375 33.203125 13.078125 
Q 36.328125 17.1875 35.9375 22.453125 
Q 35.546875 27.734375 31.828125 30.65625 
Q 28.125 33.59375 19.921875 34.765625 
L 19.921875 39.84375 
Q 28.125 40.625 31.828125 44.140625 
Q 35.546875 47.65625 35.15625 53.3125 
Q 34.765625 58.984375 30.078125 61.515625 
Q 25.390625 64.0625 20.109375 62.109375 
Q 14.84375 60.15625 11.71875 51.171875 
L 4.6875 52.34375 
Q 7.03125 59.375 11.125 64.0625 
Q 15.234375 68.75 22.265625 69.53125 
Q 29.296875 70.3125 34.5625 67.765625 
Q 39.84375 65.234375 41.984375 59.953125 
Q 44.140625 54.6875 42.578125 48.4375 
Q 41.015625 42.1875 33.59375 37.5 
Q 39.0625 35.15625 41.984375 30.46875 
Q 44.921875 25.78125 43.9375 18.15625 
Q 42.96875 10.546875 37.109375 5.859375 
Q 31.25 1.171875 23.828125 1.359375 
Q 16.40625 1.5625 10.9375 6.046875 
Q 5.46875 10.546875 3.90625 19.140625 
z
" id="SimHei-51"/>
       </defs>
       <use xlink:href="#SimHei-51"/>
       <use x="50" xlink:href="#SimHei-48"/>
      </g>
     </g>
    </g>
    <g id="ytick_5">
     <g id="line2d_10">
      <g>
       <use style="fill:#ffffff;stroke:#ffffff;stroke-width:0.8;" x="24.2" xlink:href="#m1e4e539e06" y="87.225572"/>
      </g>
     </g>
     <g id="text_10">
      <!-- 40 -->
      <g style="fill:#ffffff;" transform="translate(7.2 90.663072)scale(0.1 -0.1)">
       <defs>
        <path d="M 31.25 17.1875 
L 1.171875 17.1875 
L 1.171875 23.828125 
L 32.8125 69.53125 
L 38.671875 69.53125 
L 38.671875 23.828125 
L 48.046875 23.828125 
L 48.046875 17.1875 
L 38.671875 17.1875 
L 38.671875 2.34375 
L 31.25 2.34375 
z
M 31.25 23.828125 
L 31.25 54.6875 
L 9.375 23.828125 
z
" id="SimHei-52"/>
       </defs>
       <use xlink:href="#SimHei-52"/>
       <use x="50" xlink:href="#SimHei-48"/>
      </g>
     </g>
    </g>
    <g id="ytick_6">
     <g id="line2d_11">
      <g>
       <use style="fill:#ffffff;stroke:#ffffff;stroke-width:0.8;" x="24.2" xlink:href="#m1e4e539e06" y="55.342874"/>
      </g>
     </g>
     <g id="text_11">
      <!-- 50 -->
      <g style="fill:#ffffff;" transform="translate(7.2 58.780374)scale(0.1 -0.1)">
       <defs>
        <path d="M 8.59375 20.703125 
Q 11.328125 10.15625 17.96875 8.984375 
Q 24.609375 7.8125 28.703125 10.34375 
Q 32.8125 12.890625 34.5625 16.984375 
Q 36.328125 21.09375 36.125 26.171875 
Q 35.9375 31.25 33.390625 34.765625 
Q 30.859375 38.28125 26.953125 39.453125 
Q 23.046875 40.625 18.15625 39.453125 
Q 13.28125 38.28125 10.15625 33.984375 
L 3.515625 34.765625 
Q 4.296875 37.109375 10.9375 68.359375 
L 41.796875 68.359375 
L 41.796875 61.328125 
L 16.796875 61.328125 
Q 14.84375 50.78125 12.890625 44.53125 
Q 18.75 47.265625 23.828125 47.0625 
Q 28.90625 46.875 33.59375 44.71875 
Q 38.28125 42.578125 40.421875 38.859375 
Q 42.578125 35.15625 43.546875 31.4375 
Q 44.53125 27.734375 44.328125 23.4375 
Q 44.140625 19.140625 42.578125 14.640625 
Q 41.015625 10.15625 37.890625 7.21875 
Q 34.765625 4.296875 30.265625 2.53125 
Q 25.78125 0.78125 19.921875 1.171875 
Q 14.0625 1.5625 8.78125 5.46875 
Q 3.515625 9.375 1.5625 18.75 
z
" id="SimHei-53"/>
       </defs>
       <use xlink:href="#SimHei-53"/>
       <use x="50" xlink:href="#SimHei-48"/>
      </g>
     </g>
    </g>
    <g id="ytick_7">
     <g id="line2d_12">
      <g>
       <use style="fill:#ffffff;stroke:#ffffff;stroke-width:0.8;" x="24.2" xlink:href="#m1e4e539e06" y="23.460176"/>
      </g>
     </g>
     <g id="text_12">
      <!-- 60 -->
      <g style="fill:#ffffff;" transform="translate(7.2 26.897676)scale(0.1 -0.1)">
       <defs>
        <path d="M 3.515625 19.53125 
Q 4.296875 30.859375 6.046875 34.765625 
Q 7.8125 38.671875 11.328125 44.53125 
L 27.34375 69.53125 
L 36.328125 69.53125 
L 19.921875 43.75 
Q 30.46875 46.484375 36.71875 42.96875 
Q 42.96875 39.453125 45.109375 34.953125 
Q 47.265625 30.46875 47.453125 25.1875 
Q 47.65625 19.921875 45.890625 14.84375 
Q 44.140625 9.765625 39.640625 5.65625 
Q 35.15625 1.5625 27.140625 1.171875 
Q 19.140625 0.78125 13.46875 4.09375 
Q 7.8125 7.421875 5.65625 13.46875 
Q 3.515625 19.53125 4.296875 30.859375 
z
M 12.5 16.015625 
Q 19.53125 8.59375 25.390625 8.203125 
Q 31.25 7.8125 35.15625 12.109375 
Q 39.0625 16.40625 39.0625 24.609375 
Q 39.0625 32.8125 34.171875 35.9375 
Q 29.296875 39.0625 23.234375 38.28125 
Q 17.1875 37.5 14.453125 32.421875 
Q 11.71875 27.34375 12.109375 21.671875 
Q 12.5 16.015625 19.53125 8.59375 
z
" id="SimHei-54"/>
       </defs>
       <use xlink:href="#SimHei-54"/>
       <use x="50" xlink:href="#SimHei-48"/>
      </g>
     </g>
    </g>
   </g>
   <g id="line2d_13">
    <path clip-path="url(#pe348250b6b)" d="M 40.94 211.568094 
L 74.42 211.568094 
L 74.42 202.003284 
L 40.94 202.003284 
L 40.94 211.568094 
" style="fill:none;stroke:#8dd3c7;stroke-linecap:square;"/>
   </g>
   <g id="line2d_14">
    <path clip-path="url(#pe348250b6b)" d="M 57.68 211.568094 
L 57.68 214.756364 
" style="fill:none;stroke:#8dd3c7;stroke-linecap:square;"/>
   </g>
   <g id="line2d_15">
    <path clip-path="url(#pe348250b6b)" d="M 57.68 202.003284 
L 57.68 189.250205 
" style="fill:none;stroke:#8dd3c7;stroke-linecap:square;"/>
   </g>
   <g id="line2d_16">
    <path clip-path="url(#pe348250b6b)" d="M 49.31 214.756364 
L 66.05 214.756364 
" style="fill:none;stroke:#000000;stroke-linecap:square;"/>
   </g>
   <g id="line2d_17">
    <path clip-path="url(#pe348250b6b)" d="M 49.31 189.250205 
L 66.05 189.250205 
" style="fill:none;stroke:#000000;stroke-linecap:square;"/>
   </g>
   <g id="line2d_18">
    <defs>
     <path d="M 0 3 
C 0.795609 3 1.55874 2.683901 2.12132 2.12132 
C 2.683901 1.55874 3 0.795609 3 0 
C 3 -0.795609 2.683901 -1.55874 2.12132 -2.12132 
C 1.55874 -2.683901 0.795609 -3 0 -3 
C -0.795609 -3 -1.55874 -2.683901 -2.12132 -2.12132 
C -2.683901 -1.55874 -3 -0.795609 -3 0 
C -3 0.795609 -2.683901 1.55874 -2.12132 2.12132 
C -1.55874 2.683901 -0.795609 3 0 3 
z
" id="mb9602b9018" style="stroke:#ffffff;"/>
    </defs>
    <g clip-path="url(#pe348250b6b)">
     <use style="fill-opacity:0;stroke:#ffffff;" x="57.68" xlink:href="#mb9602b9018" y="182.873666"/>
     <use style="fill-opacity:0;stroke:#ffffff;" x="57.68" xlink:href="#mb9602b9018" y="179.685396"/>
     <use style="fill-opacity:0;stroke:#ffffff;" x="57.68" xlink:href="#mb9602b9018" y="186.061935"/>
     <use style="fill-opacity:0;stroke:#ffffff;" x="57.68" xlink:href="#mb9602b9018" y="186.061935"/>
     <use style="fill-opacity:0;stroke:#ffffff;" x="57.68" xlink:href="#mb9602b9018" y="186.061935"/>
     <use style="fill-opacity:0;stroke:#ffffff;" x="57.68" xlink:href="#mb9602b9018" y="157.367507"/>
     <use style="fill-opacity:0;stroke:#ffffff;" x="57.68" xlink:href="#mb9602b9018" y="176.497126"/>
     <use style="fill-opacity:0;stroke:#ffffff;" x="57.68" xlink:href="#mb9602b9018" y="186.061935"/>
     <use style="fill-opacity:0;stroke:#ffffff;" x="57.68" xlink:href="#mb9602b9018" y="170.120587"/>
     <use style="fill-opacity:0;stroke:#ffffff;" x="57.68" xlink:href="#mb9602b9018" y="182.873666"/>
     <use style="fill-opacity:0;stroke:#ffffff;" x="57.68" xlink:href="#mb9602b9018" y="186.061935"/>
     <use style="fill-opacity:0;stroke:#ffffff;" x="57.68" xlink:href="#mb9602b9018" y="186.061935"/>
     <use style="fill-opacity:0;stroke:#ffffff;" x="57.68" xlink:href="#mb9602b9018" y="182.873666"/>
     <use style="fill-opacity:0;stroke:#ffffff;" x="57.68" xlink:href="#mb9602b9018" y="186.061935"/>
     <use style="fill-opacity:0;stroke:#ffffff;" x="57.68" xlink:href="#mb9602b9018" y="186.061935"/>
     <use style="fill-opacity:0;stroke:#ffffff;" x="57.68" xlink:href="#mb9602b9018" y="182.873666"/>
     <use style="fill-opacity:0;stroke:#ffffff;" x="57.68" xlink:href="#mb9602b9018" y="179.685396"/>
     <use style="fill-opacity:0;stroke:#ffffff;" x="57.68" xlink:href="#mb9602b9018" y="163.744047"/>
     <use style="fill-opacity:0;stroke:#ffffff;" x="57.68" xlink:href="#mb9602b9018" y="182.873666"/>
     <use style="fill-opacity:0;stroke:#ffffff;" x="57.68" xlink:href="#mb9602b9018" y="182.873666"/>
     <use style="fill-opacity:0;stroke:#ffffff;" x="57.68" xlink:href="#mb9602b9018" y="182.873666"/>
     <use style="fill-opacity:0;stroke:#ffffff;" x="57.68" xlink:href="#mb9602b9018" y="186.061935"/>
     <use style="fill-opacity:0;stroke:#ffffff;" x="57.68" xlink:href="#mb9602b9018" y="176.497126"/>
     <use style="fill-opacity:0;stroke:#ffffff;" x="57.68" xlink:href="#mb9602b9018" y="173.308856"/>
     <use style="fill-opacity:0;stroke:#ffffff;" x="57.68" xlink:href="#mb9602b9018" y="182.873666"/>
     <use style="fill-opacity:0;stroke:#ffffff;" x="57.68" xlink:href="#mb9602b9018" y="186.061935"/>
     <use style="fill-opacity:0;stroke:#ffffff;" x="57.68" xlink:href="#mb9602b9018" y="163.744047"/>
     <use style="fill-opacity:0;stroke:#ffffff;" x="57.68" xlink:href="#mb9602b9018" y="182.873666"/>
    </g>
   </g>
   <g id="line2d_19">
    <path clip-path="url(#pe348250b6b)" d="M 107.9 211.568094 
L 141.38 211.568094 
L 141.38 202.003284 
L 107.9 202.003284 
L 107.9 211.568094 
" style="fill:none;stroke:#8dd3c7;stroke-linecap:square;"/>
   </g>
   <g id="line2d_20">
    <path clip-path="url(#pe348250b6b)" d="M 124.64 211.568094 
L 124.64 214.756364 
" style="fill:none;stroke:#8dd3c7;stroke-linecap:square;"/>
   </g>
   <g id="line2d_21">
    <path clip-path="url(#pe348250b6b)" d="M 124.64 202.003284 
L 124.64 189.250205 
" style="fill:none;stroke:#8dd3c7;stroke-linecap:square;"/>
   </g>
   <g id="line2d_22">
    <path clip-path="url(#pe348250b6b)" d="M 116.27 214.756364 
L 133.01 214.756364 
" style="fill:none;stroke:#000000;stroke-linecap:square;"/>
   </g>
   <g id="line2d_23">
    <path clip-path="url(#pe348250b6b)" d="M 116.27 189.250205 
L 133.01 189.250205 
" style="fill:none;stroke:#000000;stroke-linecap:square;"/>
   </g>
   <g id="line2d_24">
    <g clip-path="url(#pe348250b6b)">
     <use style="fill-opacity:0;stroke:#ffffff;" x="124.64" xlink:href="#mb9602b9018" y="176.497126"/>
     <use style="fill-opacity:0;stroke:#ffffff;" x="124.64" xlink:href="#mb9602b9018" y="186.061935"/>
     <use style="fill-opacity:0;stroke:#ffffff;" x="124.64" xlink:href="#mb9602b9018" y="186.061935"/>
     <use style="fill-opacity:0;stroke:#ffffff;" x="124.64" xlink:href="#mb9602b9018" y="166.932317"/>
     <use style="fill-opacity:0;stroke:#ffffff;" x="124.64" xlink:href="#mb9602b9018" y="186.061935"/>
     <use style="fill-opacity:0;stroke:#ffffff;" x="124.64" xlink:href="#mb9602b9018" y="182.873666"/>
     <use style="fill-opacity:0;stroke:#ffffff;" x="124.64" xlink:href="#mb9602b9018" y="186.061935"/>
     <use style="fill-opacity:0;stroke:#ffffff;" x="124.64" xlink:href="#mb9602b9018" y="186.061935"/>
     <use style="fill-opacity:0;stroke:#ffffff;" x="124.64" xlink:href="#mb9602b9018" y="179.685396"/>
     <use style="fill-opacity:0;stroke:#ffffff;" x="124.64" xlink:href="#mb9602b9018" y="179.685396"/>
     <use style="fill-opacity:0;stroke:#ffffff;" x="124.64" xlink:href="#mb9602b9018" y="186.061935"/>
     <use style="fill-opacity:0;stroke:#ffffff;" x="124.64" xlink:href="#mb9602b9018" y="186.061935"/>
     <use style="fill-opacity:0;stroke:#ffffff;" x="124.64" xlink:href="#mb9602b9018" y="182.873666"/>
     <use style="fill-opacity:0;stroke:#ffffff;" x="124.64" xlink:href="#mb9602b9018" y="182.873666"/>
     <use style="fill-opacity:0;stroke:#ffffff;" x="124.64" xlink:href="#mb9602b9018" y="179.685396"/>
     <use style="fill-opacity:0;stroke:#ffffff;" x="124.64" xlink:href="#mb9602b9018" y="179.685396"/>
     <use style="fill-opacity:0;stroke:#ffffff;" x="124.64" xlink:href="#mb9602b9018" y="186.061935"/>
     <use style="fill-opacity:0;stroke:#ffffff;" x="124.64" xlink:href="#mb9602b9018" y="179.685396"/>
     <use style="fill-opacity:0;stroke:#ffffff;" x="124.64" xlink:href="#mb9602b9018" y="170.120587"/>
     <use style="fill-opacity:0;stroke:#ffffff;" x="124.64" xlink:href="#mb9602b9018" y="186.061935"/>
     <use style="fill-opacity:0;stroke:#ffffff;" x="124.64" xlink:href="#mb9602b9018" y="182.873666"/>
     <use style="fill-opacity:0;stroke:#ffffff;" x="124.64" xlink:href="#mb9602b9018" y="186.061935"/>
     <use style="fill-opacity:0;stroke:#ffffff;" x="124.64" xlink:href="#mb9602b9018" y="176.497126"/>
    </g>
   </g>
   <g id="line2d_25">
    <path clip-path="url(#pe348250b6b)" d="M 174.86 211.568094 
L 208.34 211.568094 
L 208.34 202.003284 
L 174.86 202.003284 
L 174.86 211.568094 
" style="fill:none;stroke:#8dd3c7;stroke-linecap:square;"/>
   </g>
   <g id="line2d_26">
    <path clip-path="url(#pe348250b6b)" d="M 191.6 211.568094 
L 191.6 214.756364 
" style="fill:none;stroke:#8dd3c7;stroke-linecap:square;"/>
   </g>
   <g id="line2d_27">
    <path clip-path="url(#pe348250b6b)" d="M 191.6 202.003284 
L 191.6 189.250205 
" style="fill:none;stroke:#8dd3c7;stroke-linecap:square;"/>
   </g>
   <g id="line2d_28">
    <path clip-path="url(#pe348250b6b)" d="M 183.23 214.756364 
L 199.97 214.756364 
" style="fill:none;stroke:#000000;stroke-linecap:square;"/>
   </g>
   <g id="line2d_29">
    <path clip-path="url(#pe348250b6b)" d="M 183.23 189.250205 
L 199.97 189.250205 
" style="fill:none;stroke:#000000;stroke-linecap:square;"/>
   </g>
   <g id="line2d_30">
    <g clip-path="url(#pe348250b6b)">
     <use style="fill-opacity:0;stroke:#ffffff;" x="191.6" xlink:href="#mb9602b9018" y="182.873666"/>
     <use style="fill-opacity:0;stroke:#ffffff;" x="191.6" xlink:href="#mb9602b9018" y="179.685396"/>
     <use style="fill-opacity:0;stroke:#ffffff;" x="191.6" xlink:href="#mb9602b9018" y="182.873666"/>
     <use style="fill-opacity:0;stroke:#ffffff;" x="191.6" xlink:href="#mb9602b9018" y="186.061935"/>
     <use style="fill-opacity:0;stroke:#ffffff;" x="191.6" xlink:href="#mb9602b9018" y="186.061935"/>
     <use style="fill-opacity:0;stroke:#ffffff;" x="191.6" xlink:href="#mb9602b9018" y="176.497126"/>
     <use style="fill-opacity:0;stroke:#ffffff;" x="191.6" xlink:href="#mb9602b9018" y="186.061935"/>
     <use style="fill-opacity:0;stroke:#ffffff;" x="191.6" xlink:href="#mb9602b9018" y="160.555777"/>
     <use style="fill-opacity:0;stroke:#ffffff;" x="191.6" xlink:href="#mb9602b9018" y="186.061935"/>
     <use style="fill-opacity:0;stroke:#ffffff;" x="191.6" xlink:href="#mb9602b9018" y="186.061935"/>
     <use style="fill-opacity:0;stroke:#ffffff;" x="191.6" xlink:href="#mb9602b9018" y="186.061935"/>
     <use style="fill-opacity:0;stroke:#ffffff;" x="191.6" xlink:href="#mb9602b9018" y="182.873666"/>
     <use style="fill-opacity:0;stroke:#ffffff;" x="191.6" xlink:href="#mb9602b9018" y="179.685396"/>
     <use style="fill-opacity:0;stroke:#ffffff;" x="191.6" xlink:href="#mb9602b9018" y="179.685396"/>
     <use style="fill-opacity:0;stroke:#ffffff;" x="191.6" xlink:href="#mb9602b9018" y="186.061935"/>
     <use style="fill-opacity:0;stroke:#ffffff;" x="191.6" xlink:href="#mb9602b9018" y="182.873666"/>
     <use style="fill-opacity:0;stroke:#ffffff;" x="191.6" xlink:href="#mb9602b9018" y="179.685396"/>
     <use style="fill-opacity:0;stroke:#ffffff;" x="191.6" xlink:href="#mb9602b9018" y="179.685396"/>
     <use style="fill-opacity:0;stroke:#ffffff;" x="191.6" xlink:href="#mb9602b9018" y="176.497126"/>
     <use style="fill-opacity:0;stroke:#ffffff;" x="191.6" xlink:href="#mb9602b9018" y="166.932317"/>
     <use style="fill-opacity:0;stroke:#ffffff;" x="191.6" xlink:href="#mb9602b9018" y="176.497126"/>
    </g>
   </g>
   <g id="line2d_31">
    <path clip-path="url(#pe348250b6b)" d="M 241.82 211.568094 
L 275.3 211.568094 
L 275.3 202.003284 
L 241.82 202.003284 
L 241.82 211.568094 
" style="fill:none;stroke:#8dd3c7;stroke-linecap:square;"/>
   </g>
   <g id="line2d_32">
    <path clip-path="url(#pe348250b6b)" d="M 258.56 211.568094 
L 258.56 214.756364 
" style="fill:none;stroke:#8dd3c7;stroke-linecap:square;"/>
   </g>
   <g id="line2d_33">
    <path clip-path="url(#pe348250b6b)" d="M 258.56 202.003284 
L 258.56 189.250205 
" style="fill:none;stroke:#8dd3c7;stroke-linecap:square;"/>
   </g>
   <g id="line2d_34">
    <path clip-path="url(#pe348250b6b)" d="M 250.19 214.756364 
L 266.93 214.756364 
" style="fill:none;stroke:#000000;stroke-linecap:square;"/>
   </g>
   <g id="line2d_35">
    <path clip-path="url(#pe348250b6b)" d="M 250.19 189.250205 
L 266.93 189.250205 
" style="fill:none;stroke:#000000;stroke-linecap:square;"/>
   </g>
   <g id="line2d_36">
    <g clip-path="url(#pe348250b6b)">
     <use style="fill-opacity:0;stroke:#ffffff;" x="258.56" xlink:href="#mb9602b9018" y="170.120587"/>
     <use style="fill-opacity:0;stroke:#ffffff;" x="258.56" xlink:href="#mb9602b9018" y="182.873666"/>
     <use style="fill-opacity:0;stroke:#ffffff;" x="258.56" xlink:href="#mb9602b9018" y="186.061935"/>
     <use style="fill-opacity:0;stroke:#ffffff;" x="258.56" xlink:href="#mb9602b9018" y="186.061935"/>
     <use style="fill-opacity:0;stroke:#ffffff;" x="258.56" xlink:href="#mb9602b9018" y="182.873666"/>
     <use style="fill-opacity:0;stroke:#ffffff;" x="258.56" xlink:href="#mb9602b9018" y="186.061935"/>
     <use style="fill-opacity:0;stroke:#ffffff;" x="258.56" xlink:href="#mb9602b9018" y="182.873666"/>
     <use style="fill-opacity:0;stroke:#ffffff;" x="258.56" xlink:href="#mb9602b9018" y="170.120587"/>
     <use style="fill-opacity:0;stroke:#ffffff;" x="258.56" xlink:href="#mb9602b9018" y="186.061935"/>
     <use style="fill-opacity:0;stroke:#ffffff;" x="258.56" xlink:href="#mb9602b9018" y="182.873666"/>
     <use style="fill-opacity:0;stroke:#ffffff;" x="258.56" xlink:href="#mb9602b9018" y="144.614428"/>
     <use style="fill-opacity:0;stroke:#ffffff;" x="258.56" xlink:href="#mb9602b9018" y="182.873666"/>
     <use style="fill-opacity:0;stroke:#ffffff;" x="258.56" xlink:href="#mb9602b9018" y="182.873666"/>
     <use style="fill-opacity:0;stroke:#ffffff;" x="258.56" xlink:href="#mb9602b9018" y="179.685396"/>
     <use style="fill-opacity:0;stroke:#ffffff;" x="258.56" xlink:href="#mb9602b9018" y="160.555777"/>
     <use style="fill-opacity:0;stroke:#ffffff;" x="258.56" xlink:href="#mb9602b9018" y="182.873666"/>
     <use style="fill-opacity:0;stroke:#ffffff;" x="258.56" xlink:href="#mb9602b9018" y="179.685396"/>
     <use style="fill-opacity:0;stroke:#ffffff;" x="258.56" xlink:href="#mb9602b9018" y="179.685396"/>
     <use style="fill-opacity:0;stroke:#ffffff;" x="258.56" xlink:href="#mb9602b9018" y="182.873666"/>
     <use style="fill-opacity:0;stroke:#ffffff;" x="258.56" xlink:href="#mb9602b9018" y="186.061935"/>
     <use style="fill-opacity:0;stroke:#ffffff;" x="258.56" xlink:href="#mb9602b9018" y="179.685396"/>
     <use style="fill-opacity:0;stroke:#ffffff;" x="258.56" xlink:href="#mb9602b9018" y="163.744047"/>
     <use style="fill-opacity:0;stroke:#ffffff;" x="258.56" xlink:href="#mb9602b9018" y="176.497126"/>
     <use style="fill-opacity:0;stroke:#ffffff;" x="258.56" xlink:href="#mb9602b9018" y="186.061935"/>
     <use style="fill-opacity:0;stroke:#ffffff;" x="258.56" xlink:href="#mb9602b9018" y="182.873666"/>
    </g>
   </g>
   <g id="line2d_37">
    <path clip-path="url(#pe348250b6b)" d="M 308.78 195.626745 
L 342.26 195.626745 
L 342.26 170.120587 
L 308.78 170.120587 
L 308.78 195.626745 
" style="fill:none;stroke:#8dd3c7;stroke-linecap:square;"/>
   </g>
   <g id="line2d_38">
    <path clip-path="url(#pe348250b6b)" d="M 325.52 195.626745 
L 325.52 211.568094 
" style="fill:none;stroke:#8dd3c7;stroke-linecap:square;"/>
   </g>
   <g id="line2d_39">
    <path clip-path="url(#pe348250b6b)" d="M 325.52 170.120587 
L 325.52 131.861349 
" style="fill:none;stroke:#8dd3c7;stroke-linecap:square;"/>
   </g>
   <g id="line2d_40">
    <path clip-path="url(#pe348250b6b)" d="M 317.15 211.568094 
L 333.89 211.568094 
" style="fill:none;stroke:#000000;stroke-linecap:square;"/>
   </g>
   <g id="line2d_41">
    <path clip-path="url(#pe348250b6b)" d="M 317.15 131.861349 
L 333.89 131.861349 
" style="fill:none;stroke:#000000;stroke-linecap:square;"/>
   </g>
   <g id="line2d_42">
    <g clip-path="url(#pe348250b6b)">
     <use style="fill-opacity:0;stroke:#ffffff;" x="325.52" xlink:href="#mb9602b9018" y="128.673079"/>
     <use style="fill-opacity:0;stroke:#ffffff;" x="325.52" xlink:href="#mb9602b9018" y="128.673079"/>
     <use style="fill-opacity:0;stroke:#ffffff;" x="325.52" xlink:href="#mb9602b9018" y="125.484809"/>
     <use style="fill-opacity:0;stroke:#ffffff;" x="325.52" xlink:href="#mb9602b9018" y="128.673079"/>
     <use style="fill-opacity:0;stroke:#ffffff;" x="325.52" xlink:href="#mb9602b9018" y="128.673079"/>
     <use style="fill-opacity:0;stroke:#ffffff;" x="325.52" xlink:href="#mb9602b9018" y="106.355191"/>
     <use style="fill-opacity:0;stroke:#ffffff;" x="325.52" xlink:href="#mb9602b9018" y="103.166921"/>
     <use style="fill-opacity:0;stroke:#ffffff;" x="325.52" xlink:href="#mb9602b9018" y="103.166921"/>
     <use style="fill-opacity:0;stroke:#ffffff;" x="325.52" xlink:href="#mb9602b9018" y="125.484809"/>
     <use style="fill-opacity:0;stroke:#ffffff;" x="325.52" xlink:href="#mb9602b9018" y="122.29654"/>
     <use style="fill-opacity:0;stroke:#ffffff;" x="325.52" xlink:href="#mb9602b9018" y="122.29654"/>
     <use style="fill-opacity:0;stroke:#ffffff;" x="325.52" xlink:href="#mb9602b9018" y="109.54346"/>
     <use style="fill-opacity:0;stroke:#ffffff;" x="325.52" xlink:href="#mb9602b9018" y="128.673079"/>
     <use style="fill-opacity:0;stroke:#ffffff;" x="325.52" xlink:href="#mb9602b9018" y="17.083636"/>
     <use style="fill-opacity:0;stroke:#ffffff;" x="325.52" xlink:href="#mb9602b9018" y="122.29654"/>
     <use style="fill-opacity:0;stroke:#ffffff;" x="325.52" xlink:href="#mb9602b9018" y="93.602111"/>
     <use style="fill-opacity:0;stroke:#ffffff;" x="325.52" xlink:href="#mb9602b9018" y="103.166921"/>
     <use style="fill-opacity:0;stroke:#ffffff;" x="325.52" xlink:href="#mb9602b9018" y="128.673079"/>
     <use style="fill-opacity:0;stroke:#ffffff;" x="325.52" xlink:href="#mb9602b9018" y="128.673079"/>
     <use style="fill-opacity:0;stroke:#ffffff;" x="325.52" xlink:href="#mb9602b9018" y="119.10827"/>
     <use style="fill-opacity:0;stroke:#ffffff;" x="325.52" xlink:href="#mb9602b9018" y="80.849032"/>
     <use style="fill-opacity:0;stroke:#ffffff;" x="325.52" xlink:href="#mb9602b9018" y="125.484809"/>
     <use style="fill-opacity:0;stroke:#ffffff;" x="325.52" xlink:href="#mb9602b9018" y="48.966334"/>
     <use style="fill-opacity:0;stroke:#ffffff;" x="325.52" xlink:href="#mb9602b9018" y="128.673079"/>
     <use style="fill-opacity:0;stroke:#ffffff;" x="325.52" xlink:href="#mb9602b9018" y="125.484809"/>
    </g>
   </g>
   <g id="line2d_43">
    <path clip-path="url(#pe348250b6b)" d="M 40.94 208.379824 
L 74.42 208.379824 
" style="fill:none;stroke:#bfbbd9;stroke-linecap:square;"/>
   </g>
   <g id="line2d_44">
    <path clip-path="url(#pe348250b6b)" d="M 107.9 208.379824 
L 141.38 208.379824 
" style="fill:none;stroke:#bfbbd9;stroke-linecap:square;"/>
   </g>
   <g id="line2d_45">
    <path clip-path="url(#pe348250b6b)" d="M 174.86 208.379824 
L 208.34 208.379824 
" style="fill:none;stroke:#bfbbd9;stroke-linecap:square;"/>
   </g>
   <g id="line2d_46">
    <path clip-path="url(#pe348250b6b)" d="M 241.82 208.379824 
L 275.3 208.379824 
" style="fill:none;stroke:#bfbbd9;stroke-linecap:square;"/>
   </g>
   <g id="line2d_47">
    <path clip-path="url(#pe348250b6b)" d="M 308.78 186.061935 
L 342.26 186.061935 
" style="fill:none;stroke:#bfbbd9;stroke-linecap:square;"/>
   </g>
   <g id="patch_3">
    <path d="M 24.2 224.64 
L 24.2 7.2 
" style="fill:none;stroke:#ffffff;stroke-linecap:square;stroke-linejoin:miter;stroke-width:0.8;"/>
   </g>
   <g id="patch_4">
    <path d="M 359 224.64 
L 359 7.2 
" style="fill:none;stroke:#ffffff;stroke-linecap:square;stroke-linejoin:miter;stroke-width:0.8;"/>
   </g>
   <g id="patch_5">
    <path d="M 24.2 224.64 
L 359 224.64 
" style="fill:none;stroke:#ffffff;stroke-linecap:square;stroke-linejoin:miter;stroke-width:0.8;"/>
   </g>
   <g id="patch_6">
    <path d="M 24.2 7.2 
L 359 7.2 
" style="fill:none;stroke:#ffffff;stroke-linecap:square;stroke-linejoin:miter;stroke-width:0.8;"/>
   </g>
  </g>
 </g>
 <defs>
  <clipPath id="pe348250b6b">
   <rect height="217.44" width="334.8" x="24.2" y="7.2"/>
  </clipPath>
 </defs>
</svg>
