<?xml version="1.0" encoding="utf-8" standalone="no"?>
<!DOCTYPE svg PUBLIC "-//W3C//DTD SVG 1.1//EN"
  "http://www.w3.org/Graphics/SVG/1.1/DTD/svg11.dtd">
<!-- Created with matplotlib (https://matplotlib.org/) -->
<svg height="246.965pt" version="1.1" viewBox="0 0 393.325 246.965" width="393.325pt" xmlns="http://www.w3.org/2000/svg" xmlns:xlink="http://www.w3.org/1999/xlink">
 <metadata>
  <rdf:RDF xmlns:cc="http://creativecommons.org/ns#" xmlns:dc="http://purl.org/dc/elements/1.1/" xmlns:rdf="http://www.w3.org/1999/02/22-rdf-syntax-ns#">
   <cc:Work>
    <dc:type rdf:resource="http://purl.org/dc/dcmitype/StillImage"/>
    <dc:date>2021-05-20T03:48:14.765205</dc:date>
    <dc:format>image/svg+xml</dc:format>
    <dc:creator>
     <cc:Agent>
      <dc:title>Matplotlib v3.3.2, https://matplotlib.org/</dc:title>
     </cc:Agent>
    </dc:creator>
   </cc:Work>
  </rdf:RDF>
 </metadata>
 <defs>
  <style type="text/css">*{stroke-linecap:butt;stroke-linejoin:round;}</style>
 </defs>
 <g id="figure_1">
  <g id="patch_1">
   <path d="M 0 246.965 
L 393.325 246.965 
L 393.325 0 
L 0 0 
z
"/>
  </g>
  <g id="axes_1">
   <g id="patch_2">
    <path d="M 51.325 224.64 
L 386.125 224.64 
L 386.125 7.2 
L 51.325 7.2 
z
"/>
   </g>
   <g id="matplotlib.axis_1">
    <g id="xtick_1">
     <g id="line2d_1">
      <defs>
       <path d="M 0 0 
L 0 3.5 
" id="m9691a202b4" style="stroke:#ffffff;stroke-width:0.8;"/>
      </defs>
      <g>
       <use style="fill:#ffffff;stroke:#ffffff;stroke-width:0.8;" x="84.805" xlink:href="#m9691a202b4" y="224.64"/>
      </g>
     </g>
     <g id="text_1">
      <!-- 0 -->
      <g style="fill:#ffffff;" transform="translate(82.305 238.515)scale(0.1 -0.1)">
       <defs>
        <path d="M 3.125 29.296875 
Q 3.90625 50 6.4375 56.046875 
Q 8.984375 62.109375 13.671875 66.015625 
Q 18.359375 69.921875 25.1875 69.921875 
Q 32.03125 69.921875 37.109375 64.25 
Q 42.1875 58.59375 43.75 50 
Q 45.3125 41.40625 44.71875 30.265625 
Q 44.140625 19.140625 40.8125 12.109375 
Q 37.5 5.078125 30.859375 2.34375 
Q 24.21875 -0.390625 17.578125 2.921875 
Q 10.9375 6.25 8.203125 11.71875 
Q 5.46875 17.1875 4.296875 23.234375 
Q 3.125 29.296875 3.90625 50 
z
M 12.890625 52.734375 
Q 10.546875 31.25 12.5 22.84375 
Q 14.453125 14.453125 18.9375 10.9375 
Q 23.4375 7.421875 28.125 9.5625 
Q 32.8125 11.71875 34.953125 18.15625 
Q 37.109375 24.609375 37.109375 32.21875 
Q 37.109375 39.84375 36.515625 46.09375 
Q 35.9375 52.34375 33 57.421875 
Q 30.078125 62.5 25.1875 62.6875 
Q 20.3125 62.890625 16.59375 57.8125 
Q 12.890625 52.734375 10.546875 31.25 
z
" id="SimHei-48"/>
       </defs>
       <use xlink:href="#SimHei-48"/>
      </g>
     </g>
    </g>
    <g id="xtick_2">
     <g id="line2d_2">
      <g>
       <use style="fill:#ffffff;stroke:#ffffff;stroke-width:0.8;" x="151.765" xlink:href="#m9691a202b4" y="224.64"/>
      </g>
     </g>
     <g id="text_2">
      <!-- 10 -->
      <g style="fill:#ffffff;" transform="translate(146.765 238.515)scale(0.1 -0.1)">
       <defs>
        <path d="M 21.875 56.25 
Q 16.796875 51.171875 8.984375 46.484375 
L 8.984375 53.90625 
Q 18.75 60.546875 25 69.53125 
L 29.6875 69.53125 
L 29.6875 2.34375 
L 21.875 2.34375 
z
" id="SimHei-49"/>
       </defs>
       <use xlink:href="#SimHei-49"/>
       <use x="50" xlink:href="#SimHei-48"/>
      </g>
     </g>
    </g>
    <g id="xtick_3">
     <g id="line2d_3">
      <g>
       <use style="fill:#ffffff;stroke:#ffffff;stroke-width:0.8;" x="218.725" xlink:href="#m9691a202b4" y="224.64"/>
      </g>
     </g>
     <g id="text_3">
      <!-- 20 -->
      <g style="fill:#ffffff;" transform="translate(213.725 238.515)scale(0.1 -0.1)">
       <defs>
        <path d="M 4.6875 3.90625 
Q 5.078125 9.765625 10.15625 14.453125 
Q 15.234375 19.140625 23.046875 29.09375 
Q 30.859375 39.0625 33.203125 44.53125 
Q 35.546875 50 34.953125 53.90625 
Q 34.375 57.8125 31.25 60.34375 
Q 28.125 62.890625 24.015625 62.5 
Q 19.921875 62.109375 16.203125 59.375 
Q 12.5 56.640625 10.546875 51.171875 
L 3.125 52.34375 
Q 6.25 61.328125 11.125 65.421875 
Q 16.015625 69.53125 22.65625 69.921875 
Q 26.5625 70.3125 29.6875 69.71875 
Q 32.8125 69.140625 36.125 66.984375 
Q 39.453125 64.84375 41.59375 60.546875 
Q 43.75 56.25 43.15625 50.1875 
Q 42.578125 44.140625 37.109375 35.734375 
Q 31.640625 27.34375 16.015625 9.375 
L 44.140625 9.375 
L 44.140625 2.34375 
L 4.6875 2.34375 
z
" id="SimHei-50"/>
       </defs>
       <use xlink:href="#SimHei-50"/>
       <use x="50" xlink:href="#SimHei-48"/>
      </g>
     </g>
    </g>
    <g id="xtick_4">
     <g id="line2d_4">
      <g>
       <use style="fill:#ffffff;stroke:#ffffff;stroke-width:0.8;" x="285.685" xlink:href="#m9691a202b4" y="224.64"/>
      </g>
     </g>
     <g id="text_4">
      <!-- 30 -->
      <g style="fill:#ffffff;" transform="translate(280.685 238.515)scale(0.1 -0.1)">
       <defs>
        <path d="M 3.90625 19.140625 
L 10.9375 20.3125 
Q 12.5 15.234375 16.015625 11.90625 
Q 19.53125 8.59375 24.796875 8.78125 
Q 30.078125 8.984375 33.203125 13.078125 
Q 36.328125 17.1875 35.9375 22.453125 
Q 35.546875 27.734375 31.828125 30.65625 
Q 28.125 33.59375 19.921875 34.765625 
L 19.921875 39.84375 
Q 28.125 40.625 31.828125 44.140625 
Q 35.546875 47.65625 35.15625 53.3125 
Q 34.765625 58.984375 30.078125 61.515625 
Q 25.390625 64.0625 20.109375 62.109375 
Q 14.84375 60.15625 11.71875 51.171875 
L 4.6875 52.34375 
Q 7.03125 59.375 11.125 64.0625 
Q 15.234375 68.75 22.265625 69.53125 
Q 29.296875 70.3125 34.5625 67.765625 
Q 39.84375 65.234375 41.984375 59.953125 
Q 44.140625 54.6875 42.578125 48.4375 
Q 41.015625 42.1875 33.59375 37.5 
Q 39.0625 35.15625 41.984375 30.46875 
Q 44.921875 25.78125 43.9375 18.15625 
Q 42.96875 10.546875 37.109375 5.859375 
Q 31.25 1.171875 23.828125 1.359375 
Q 16.40625 1.5625 10.9375 6.046875 
Q 5.46875 10.546875 3.90625 19.140625 
z
" id="SimHei-51"/>
       </defs>
       <use xlink:href="#SimHei-51"/>
       <use x="50" xlink:href="#SimHei-48"/>
      </g>
     </g>
    </g>
    <g id="xtick_5">
     <g id="line2d_5">
      <g>
       <use style="fill:#ffffff;stroke:#ffffff;stroke-width:0.8;" x="352.645" xlink:href="#m9691a202b4" y="224.64"/>
      </g>
     </g>
     <g id="text_5">
      <!-- 40 -->
      <g style="fill:#ffffff;" transform="translate(347.645 238.515)scale(0.1 -0.1)">
       <defs>
        <path d="M 31.25 17.1875 
L 1.171875 17.1875 
L 1.171875 23.828125 
L 32.8125 69.53125 
L 38.671875 69.53125 
L 38.671875 23.828125 
L 48.046875 23.828125 
L 48.046875 17.1875 
L 38.671875 17.1875 
L 38.671875 2.34375 
L 31.25 2.34375 
z
M 31.25 23.828125 
L 31.25 54.6875 
L 9.375 23.828125 
z
" id="SimHei-52"/>
       </defs>
       <use xlink:href="#SimHei-52"/>
       <use x="50" xlink:href="#SimHei-48"/>
      </g>
     </g>
    </g>
   </g>
   <g id="matplotlib.axis_2">
    <g id="ytick_1">
     <g id="line2d_6">
      <defs>
       <path d="M 0 0 
L -3.5 0 
" id="m11647c5060" style="stroke:#ffffff;stroke-width:0.8;"/>
      </defs>
      <g>
       <use style="fill:#ffffff;stroke:#ffffff;stroke-width:0.8;" x="51.325" xlink:href="#m11647c5060" y="214.756364"/>
      </g>
     </g>
     <g id="text_6">
      <!-- 0.000 -->
      <g style="fill:#ffffff;" transform="translate(19.325 218.193864)scale(0.1 -0.1)">
       <defs>
        <path d="M 16.796875 1.953125 
L 7.8125 1.953125 
L 7.8125 10.546875 
L 16.796875 10.546875 
z
" id="SimHei-46"/>
       </defs>
       <use xlink:href="#SimHei-48"/>
       <use x="50" xlink:href="#SimHei-46"/>
       <use x="100" xlink:href="#SimHei-48"/>
       <use x="150" xlink:href="#SimHei-48"/>
       <use x="200" xlink:href="#SimHei-48"/>
      </g>
     </g>
    </g>
    <g id="ytick_2">
     <g id="line2d_7">
      <g>
       <use style="fill:#ffffff;stroke:#ffffff;stroke-width:0.8;" x="51.325" xlink:href="#m11647c5060" y="190.109483"/>
      </g>
     </g>
     <g id="text_7">
      <!-- 0.025 -->
      <g style="fill:#ffffff;" transform="translate(19.325 193.546983)scale(0.1 -0.1)">
       <defs>
        <path d="M 8.59375 20.703125 
Q 11.328125 10.15625 17.96875 8.984375 
Q 24.609375 7.8125 28.703125 10.34375 
Q 32.8125 12.890625 34.5625 16.984375 
Q 36.328125 21.09375 36.125 26.171875 
Q 35.9375 31.25 33.390625 34.765625 
Q 30.859375 38.28125 26.953125 39.453125 
Q 23.046875 40.625 18.15625 39.453125 
Q 13.28125 38.28125 10.15625 33.984375 
L 3.515625 34.765625 
Q 4.296875 37.109375 10.9375 68.359375 
L 41.796875 68.359375 
L 41.796875 61.328125 
L 16.796875 61.328125 
Q 14.84375 50.78125 12.890625 44.53125 
Q 18.75 47.265625 23.828125 47.0625 
Q 28.90625 46.875 33.59375 44.71875 
Q 38.28125 42.578125 40.421875 38.859375 
Q 42.578125 35.15625 43.546875 31.4375 
Q 44.53125 27.734375 44.328125 23.4375 
Q 44.140625 19.140625 42.578125 14.640625 
Q 41.015625 10.15625 37.890625 7.21875 
Q 34.765625 4.296875 30.265625 2.53125 
Q 25.78125 0.78125 19.921875 1.171875 
Q 14.0625 1.5625 8.78125 5.46875 
Q 3.515625 9.375 1.5625 18.75 
z
" id="SimHei-53"/>
       </defs>
       <use xlink:href="#SimHei-48"/>
       <use x="50" xlink:href="#SimHei-46"/>
       <use x="100" xlink:href="#SimHei-48"/>
       <use x="150" xlink:href="#SimHei-50"/>
       <use x="200" xlink:href="#SimHei-53"/>
      </g>
     </g>
    </g>
    <g id="ytick_3">
     <g id="line2d_8">
      <g>
       <use style="fill:#ffffff;stroke:#ffffff;stroke-width:0.8;" x="51.325" xlink:href="#m11647c5060" y="165.462602"/>
      </g>
     </g>
     <g id="text_8">
      <!-- 0.050 -->
      <g style="fill:#ffffff;" transform="translate(19.325 168.900102)scale(0.1 -0.1)">
       <use xlink:href="#SimHei-48"/>
       <use x="50" xlink:href="#SimHei-46"/>
       <use x="100" xlink:href="#SimHei-48"/>
       <use x="150" xlink:href="#SimHei-53"/>
       <use x="200" xlink:href="#SimHei-48"/>
      </g>
     </g>
    </g>
    <g id="ytick_4">
     <g id="line2d_9">
      <g>
       <use style="fill:#ffffff;stroke:#ffffff;stroke-width:0.8;" x="51.325" xlink:href="#m11647c5060" y="140.815722"/>
      </g>
     </g>
     <g id="text_9">
      <!-- 0.075 -->
      <g style="fill:#ffffff;" transform="translate(19.325 144.253222)scale(0.1 -0.1)">
       <defs>
        <path d="M 13.28125 2.34375 
Q 20.3125 32.03125 37.890625 61.328125 
L 4.296875 61.328125 
L 4.296875 68.359375 
L 46.09375 68.359375 
L 46.09375 61.71875 
Q 27.734375 32.03125 21.875 2.34375 
L 13.28125 2.34375 
z
" id="SimHei-55"/>
       </defs>
       <use xlink:href="#SimHei-48"/>
       <use x="50" xlink:href="#SimHei-46"/>
       <use x="100" xlink:href="#SimHei-48"/>
       <use x="150" xlink:href="#SimHei-55"/>
       <use x="200" xlink:href="#SimHei-53"/>
      </g>
     </g>
    </g>
    <g id="ytick_5">
     <g id="line2d_10">
      <g>
       <use style="fill:#ffffff;stroke:#ffffff;stroke-width:0.8;" x="51.325" xlink:href="#m11647c5060" y="116.168841"/>
      </g>
     </g>
     <g id="text_10">
      <!-- 0.100 -->
      <g style="fill:#ffffff;" transform="translate(19.325 119.606341)scale(0.1 -0.1)">
       <use xlink:href="#SimHei-48"/>
       <use x="50" xlink:href="#SimHei-46"/>
       <use x="100" xlink:href="#SimHei-49"/>
       <use x="150" xlink:href="#SimHei-48"/>
       <use x="200" xlink:href="#SimHei-48"/>
      </g>
     </g>
    </g>
    <g id="ytick_6">
     <g id="line2d_11">
      <g>
       <use style="fill:#ffffff;stroke:#ffffff;stroke-width:0.8;" x="51.325" xlink:href="#m11647c5060" y="91.52196"/>
      </g>
     </g>
     <g id="text_11">
      <!-- 0.125 -->
      <g style="fill:#ffffff;" transform="translate(19.325 94.95946)scale(0.1 -0.1)">
       <use xlink:href="#SimHei-48"/>
       <use x="50" xlink:href="#SimHei-46"/>
       <use x="100" xlink:href="#SimHei-49"/>
       <use x="150" xlink:href="#SimHei-50"/>
       <use x="200" xlink:href="#SimHei-53"/>
      </g>
     </g>
    </g>
    <g id="ytick_7">
     <g id="line2d_12">
      <g>
       <use style="fill:#ffffff;stroke:#ffffff;stroke-width:0.8;" x="51.325" xlink:href="#m11647c5060" y="66.875079"/>
      </g>
     </g>
     <g id="text_12">
      <!-- 0.150 -->
      <g style="fill:#ffffff;" transform="translate(19.325 70.312579)scale(0.1 -0.1)">
       <use xlink:href="#SimHei-48"/>
       <use x="50" xlink:href="#SimHei-46"/>
       <use x="100" xlink:href="#SimHei-49"/>
       <use x="150" xlink:href="#SimHei-53"/>
       <use x="200" xlink:href="#SimHei-48"/>
      </g>
     </g>
    </g>
    <g id="ytick_8">
     <g id="line2d_13">
      <g>
       <use style="fill:#ffffff;stroke:#ffffff;stroke-width:0.8;" x="51.325" xlink:href="#m11647c5060" y="42.228199"/>
      </g>
     </g>
     <g id="text_13">
      <!-- 0.175 -->
      <g style="fill:#ffffff;" transform="translate(19.325 45.665699)scale(0.1 -0.1)">
       <use xlink:href="#SimHei-48"/>
       <use x="50" xlink:href="#SimHei-46"/>
       <use x="100" xlink:href="#SimHei-49"/>
       <use x="150" xlink:href="#SimHei-55"/>
       <use x="200" xlink:href="#SimHei-53"/>
      </g>
     </g>
    </g>
    <g id="ytick_9">
     <g id="line2d_14">
      <g>
       <use style="fill:#ffffff;stroke:#ffffff;stroke-width:0.8;" x="51.325" xlink:href="#m11647c5060" y="17.581318"/>
      </g>
     </g>
     <g id="text_14">
      <!-- 0.200 -->
      <g style="fill:#ffffff;" transform="translate(19.325 21.018818)scale(0.1 -0.1)">
       <use xlink:href="#SimHei-48"/>
       <use x="50" xlink:href="#SimHei-46"/>
       <use x="100" xlink:href="#SimHei-50"/>
       <use x="150" xlink:href="#SimHei-48"/>
       <use x="200" xlink:href="#SimHei-48"/>
      </g>
     </g>
    </g>
    <g id="text_15">
     <!-- Density -->
     <g style="fill:#ffffff;" transform="translate(14.075 133.42)rotate(-90)scale(0.1 -0.1)">
      <defs>
       <path d="M 45.703125 35.15625 
Q 45.703125 17.1875 38.078125 9.5625 
Q 30.46875 1.953125 17.578125 1.953125 
L 4.296875 1.953125 
L 4.296875 68.75 
L 17.578125 68.75 
Q 32.03125 68.75 38.859375 60.9375 
Q 45.703125 53.125 45.703125 35.15625 
z
M 36.328125 35.15625 
Q 36.328125 49.609375 31.640625 55.46875 
Q 26.953125 61.328125 17.578125 61.328125 
L 13.28125 61.328125 
L 13.28125 9.375 
L 17.578125 9.375 
Q 26.953125 9.375 31.640625 15.03125 
Q 36.328125 20.703125 36.328125 35.15625 
z
" id="SimHei-68"/>
       <path d="M 44.53125 16.796875 
Q 43.75 9.765625 38.28125 5.46875 
Q 32.8125 1.171875 25.390625 1.171875 
Q 16.015625 1.171875 9.953125 7.21875 
Q 3.90625 13.28125 3.90625 23.828125 
Q 3.90625 34.375 9.953125 40.421875 
Q 16.015625 46.484375 25.390625 46.484375 
Q 33.59375 46.484375 38.859375 41.203125 
Q 44.140625 35.9375 44.140625 23.828125 
L 12.5 23.828125 
Q 12.5 15.234375 16.203125 11.71875 
Q 19.921875 8.203125 25.390625 8.203125 
Q 29.6875 8.203125 32.421875 10.34375 
Q 35.15625 12.5 35.9375 16.796875 
z
M 35.15625 30.078125 
Q 34.375 35.546875 31.640625 37.6875 
Q 28.90625 39.84375 24.609375 39.84375 
Q 20.703125 39.84375 17.578125 37.6875 
Q 14.453125 35.546875 12.890625 30.078125 
z
" id="SimHei-101"/>
       <path d="M 43.75 1.953125 
L 35.9375 1.953125 
L 35.9375 30.078125 
Q 35.9375 34.765625 33.59375 37.5 
Q 31.25 40.234375 27.34375 40.234375 
Q 22.265625 40.234375 17.765625 34.953125 
Q 13.28125 29.6875 13.28125 21.875 
L 13.28125 1.953125 
L 5.46875 1.953125 
L 5.46875 45.703125 
L 13.28125 45.703125 
L 13.28125 37.5 
Q 16.40625 41.796875 20.109375 44.140625 
Q 23.828125 46.484375 29.6875 46.484375 
Q 36.71875 46.484375 40.234375 42.578125 
Q 43.75 38.671875 43.75 32.8125 
z
" id="SimHei-110"/>
       <path d="M 42.96875 14.0625 
Q 42.96875 7.8125 38.078125 4.484375 
Q 33.203125 1.171875 25.78125 1.171875 
Q 16.40625 1.171875 11.328125 4.875 
Q 6.25 8.59375 6.25 15.625 
L 14.0625 15.625 
Q 14.0625 10.9375 17.375 9.375 
Q 20.703125 7.8125 25.390625 7.8125 
Q 30.078125 7.8125 32.421875 9.5625 
Q 34.765625 11.328125 34.765625 14.0625 
Q 34.765625 16.015625 32.8125 17.96875 
Q 30.859375 19.921875 23.046875 21.09375 
Q 14.0625 22.265625 10.734375 25.578125 
Q 7.421875 28.90625 7.421875 34.375 
Q 7.421875 39.0625 11.90625 42.765625 
Q 16.40625 46.484375 25 46.484375 
Q 32.8125 46.484375 37.296875 42.96875 
Q 41.796875 39.453125 41.796875 33.59375 
L 33.984375 33.59375 
Q 33.984375 37.109375 31.4375 38.46875 
Q 28.90625 39.84375 25 39.84375 
Q 19.921875 39.84375 17.765625 38.078125 
Q 15.625 36.328125 15.625 33.984375 
Q 15.625 31.25 17.578125 29.6875 
Q 19.53125 28.125 25.78125 27.34375 
Q 35.9375 25.78125 39.453125 22.453125 
Q 42.96875 19.140625 42.96875 14.0625 
z
" id="SimHei-115"/>
       <path d="M 28.125 58.203125 
L 20.3125 58.203125 
L 20.3125 68.359375 
L 28.125 68.359375 
z
M 28.125 1.953125 
L 20.3125 1.953125 
L 20.3125 45.703125 
L 28.125 45.703125 
z
" id="SimHei-105"/>
       <path d="M 42.96875 3.125 
Q 41.015625 2.34375 38.46875 1.75 
Q 35.9375 1.171875 31.640625 1.171875 
Q 24.609375 1.171875 20.3125 5.078125 
Q 16.015625 8.984375 16.015625 16.015625 
L 16.015625 39.453125 
L 2.734375 39.453125 
L 2.734375 45.703125 
L 16.015625 45.703125 
L 16.015625 60.9375 
L 23.828125 60.9375 
L 23.828125 45.703125 
L 39.84375 45.703125 
L 39.84375 39.453125 
L 23.828125 39.453125 
L 23.828125 15.625 
Q 23.828125 12.5 25.390625 10.34375 
Q 26.953125 8.203125 31.25 8.203125 
Q 35.546875 8.203125 38.28125 8.984375 
Q 41.015625 9.765625 42.96875 10.9375 
z
" id="SimHei-116"/>
       <path d="M 45.3125 45.703125 
L 27.34375 -1.5625 
Q 25.78125 -7.03125 22.65625 -9.765625 
Q 19.53125 -12.5 14.84375 -12.5 
Q 12.890625 -12.5 11.125 -12.296875 
Q 9.375 -12.109375 7.8125 -11.328125 
L 7.8125 -3.515625 
Q 9.375 -4.296875 10.9375 -4.6875 
Q 12.5 -5.078125 13.671875 -5.078125 
Q 16.796875 -5.078125 17.96875 -4.09375 
Q 19.140625 -3.125 20.3125 0.390625 
L 3.125 45.703125 
L 11.71875 45.703125 
L 24.21875 11.328125 
L 24.609375 11.328125 
L 36.71875 45.703125 
z
" id="SimHei-121"/>
      </defs>
      <use xlink:href="#SimHei-68"/>
      <use x="50" xlink:href="#SimHei-101"/>
      <use x="100" xlink:href="#SimHei-110"/>
      <use x="150" xlink:href="#SimHei-115"/>
      <use x="200" xlink:href="#SimHei-105"/>
      <use x="250" xlink:href="#SimHei-116"/>
      <use x="300" xlink:href="#SimHei-121"/>
     </g>
    </g>
   </g>
   <g id="line2d_15">
    <path clip-path="url(#p1b6492e2ac)" d="M 24.541 214.756364 
L 67.491919 214.664208 
L 69.181 214.416146 
L 70.146189 214.080422 
L 70.870081 213.656985 
L 71.593973 213.011358 
L 72.317865 212.053149 
L 73.041757 210.669157 
L 73.765649 208.724237 
L 74.489541 206.065629 
L 75.213432 202.531618 
L 75.937324 197.964872 
L 76.902514 190.041162 
L 77.867703 179.851703 
L 79.074189 163.990735 
L 80.521973 141.337541 
L 83.658838 90.605406 
L 84.865324 75.200355 
L 85.830514 65.559163 
L 86.795703 58.296613 
L 87.519595 54.240302 
L 88.243486 51.169514 
L 88.967378 48.871795 
L 89.932568 46.651431 
L 90.897757 45.007309 
L 92.586838 42.668724 
L 94.275919 40.610162 
L 95.241108 39.745928 
L 95.965 39.411391 
L 96.447595 39.397272 
L 96.930189 39.585349 
L 97.412784 40.001151 
L 97.895378 40.664098 
L 98.61927 42.145549 
L 99.343162 44.211901 
L 100.308351 47.80509 
L 101.514838 53.368279 
L 103.445216 63.609943 
L 106.823378 81.522501 
L 110.201541 97.85082 
L 112.855811 111.219896 
L 115.992676 128.457974 
L 119.370838 146.636932 
L 121.542514 157.1664 
L 123.231595 164.380539 
L 124.679378 169.741994 
L 126.127162 174.307769 
L 127.574946 178.097334 
L 128.781432 180.6935 
L 129.987919 182.815515 
L 131.194405 184.511916 
L 132.400892 185.850566 
L 133.848676 187.112788 
L 137.95073 190.366122 
L 139.398514 191.949863 
L 141.087595 194.152394 
L 144.465757 198.676073 
L 145.913541 200.251632 
L 147.602622 201.732808 
L 150.015595 203.469341 
L 152.428568 205.286712 
L 155.082838 207.625926 
L 157.495811 209.653541 
L 158.943595 210.6074 
L 160.391378 211.309779 
L 162.080459 211.849768 
L 164.252135 212.264279 
L 170.284568 213.054673 
L 174.627919 213.439621 
L 184.521108 214.012756 
L 186.934081 213.789759 
L 191.51873 213.261896 
L 193.449108 213.324327 
L 196.103378 213.671388 
L 198.998946 214.008714 
L 201.411919 214.060979 
L 207.203054 214.069373 
L 212.511595 214.535707 
L 216.372351 214.714001 
L 223.61127 214.756072 
L 265.597 214.756364 
L 265.597 214.756364 
" style="fill:none;stroke:#8dd3c7;stroke-dasharray:3.7,1.6;stroke-dashoffset:0;"/>
   </g>
   <g id="line2d_16">
    <path clip-path="url(#p1b6492e2ac)" d="M 34.585 214.756364 
L 68.768784 214.652185 
L 70.176351 214.430391 
L 71.181757 214.065522 
L 71.986081 213.543589 
L 72.790405 212.698061 
L 73.393649 211.762659 
L 73.996892 210.483549 
L 74.600135 208.771424 
L 75.404459 205.64524 
L 76.208784 201.335247 
L 77.013108 195.619017 
L 77.817432 188.327746 
L 78.822838 176.893379 
L 80.029324 159.981379 
L 81.637973 133.546291 
L 84.654189 83.065128 
L 86.061757 63.242472 
L 87.268243 48.953364 
L 88.47473 37.306553 
L 89.480135 29.796135 
L 90.284459 25.372136 
L 90.887703 23.038603 
L 91.490946 21.566942 
L 91.893108 21.059005 
L 92.29527 20.916523 
L 92.697432 21.121323 
L 93.099595 21.649707 
L 93.702838 22.986461 
L 94.507162 25.616111 
L 95.512568 29.899963 
L 96.920135 36.996691 
L 99.936351 53.709038 
L 103.756892 74.490691 
L 109.990405 107.278857 
L 111.397973 113.05861 
L 112.805541 117.841684 
L 114.213108 121.785221 
L 116.223919 126.601316 
L 118.033649 131.108732 
L 119.441216 135.30307 
L 120.848784 140.231099 
L 122.658514 147.43159 
L 124.870405 157.149154 
L 129.696351 178.914955 
L 130.902838 183.101569 
L 131.908243 185.871951 
L 132.913649 187.983981 
L 133.919054 189.510854 
L 134.924459 190.582571 
L 136.130946 191.498636 
L 138.745 193.346324 
L 139.951486 194.521463 
L 141.359054 196.202117 
L 144.174189 200.035213 
L 146.788243 203.439327 
L 148.597973 205.45705 
L 150.005541 206.730251 
L 151.413108 207.68802 
L 152.619595 208.253684 
L 154.027162 208.659853 
L 156.037973 208.957836 
L 158.652027 209.370816 
L 160.461757 209.912928 
L 162.673649 210.83214 
L 167.700676 212.984186 
L 169.912568 213.659097 
L 171.722297 213.980913 
L 173.532027 214.076339 
L 175.945 213.947261 
L 181.173108 213.594941 
L 184.189324 213.656603 
L 187.205541 213.939686 
L 193.640135 214.63253 
L 197.661757 214.74294 
L 212.541757 214.756364 
L 235.465 214.756364 
L 235.465 214.756364 
" style="fill:none;stroke:#feffb3;stroke-dasharray:3.7,1.6;stroke-dashoffset:0;"/>
   </g>
   <g id="line2d_17">
    <path clip-path="url(#p1b6492e2ac)" d="M 27.889 214.756364 
L 68.681649 214.651042 
L 70.049 214.430937 
L 70.960568 214.103095 
L 71.644243 213.686076 
L 72.327919 213.045742 
L 73.011595 212.089036 
L 73.69527 210.698499 
L 74.378946 208.732769 
L 75.062622 206.030687 
L 75.746297 202.419949 
L 76.429973 197.730748 
L 77.341541 189.548798 
L 78.253108 178.961966 
L 79.392568 162.361382 
L 80.759919 138.394898 
L 84.406189 71.424516 
L 85.545649 54.981866 
L 86.685108 41.763943 
L 87.596676 33.40726 
L 88.508243 26.862464 
L 89.419811 22.021065 
L 90.103486 19.477362 
L 90.787162 17.854039 
L 91.242946 17.274237 
L 91.69873 17.083636 
L 92.154514 17.264358 
L 92.610297 17.791781 
L 93.066081 18.635038 
L 93.749757 20.412949 
L 94.661324 23.536375 
L 96.028676 29.251854 
L 98.307595 40.036562 
L 102.181757 59.708786 
L 104.460676 72.165081 
L 106.283811 83.454463 
L 111.981108 120.259826 
L 113.804243 129.875582 
L 115.399486 137.098261 
L 116.766838 142.370073 
L 118.134189 146.87074 
L 119.729432 151.364812 
L 122.008351 156.97773 
L 124.28727 162.696167 
L 125.882514 167.391632 
L 127.933541 174.288259 
L 130.440351 182.595995 
L 131.807703 186.403558 
L 133.175054 189.539386 
L 134.542405 192.063314 
L 135.909757 194.121523 
L 137.960784 196.729759 
L 143.430189 203.163416 
L 145.253324 204.961333 
L 147.076459 206.436533 
L 148.671703 207.448449 
L 150.266946 208.187542 
L 151.862189 208.654989 
L 153.457432 208.885558 
L 155.964243 208.967493 
L 158.471054 209.102948 
L 160.294189 209.431769 
L 162.345216 210.046116 
L 164.852027 211.040056 
L 171.688784 213.956597 
L 173.511919 214.360334 
L 175.562946 214.558981 
L 177.841865 214.541517 
L 181.032351 214.262514 
L 184.678622 213.970324 
L 187.185432 214.019658 
L 192.88273 214.264667 
L 196.756892 214.016126 
L 199.263703 213.972106 
L 201.998405 214.172904 
L 207.695703 214.668232 
L 212.253541 214.750783 
L 243.018946 214.756364 
L 255.553 214.756364 
L 255.553 214.756364 
" style="fill:none;stroke:#bfbbd9;stroke-dasharray:3.7,1.6;stroke-dashoffset:0;"/>
   </g>
   <g id="line2d_18">
    <path clip-path="url(#p1b6492e2ac)" d="M 11.149 214.756364 
L 68.068351 214.646118 
L 69.542946 214.416506 
L 70.722622 213.979574 
L 71.607378 213.373194 
L 72.492135 212.382253 
L 73.081973 211.421341 
L 73.671811 210.146632 
L 74.261649 208.486356 
L 75.146405 205.103454 
L 76.031162 200.414128 
L 76.915919 194.179363 
L 77.800676 186.229094 
L 78.685432 176.505476 
L 79.865108 160.954439 
L 81.339703 138.318219 
L 85.173649 77.128347 
L 86.648243 57.645092 
L 87.827919 44.726116 
L 89.007595 34.487542 
L 89.892351 28.730379 
L 90.482189 25.858318 
L 91.072027 23.773307 
L 91.661865 22.468229 
L 91.956784 22.100331 
L 92.251703 21.915319 
L 92.546622 21.906385 
L 92.841541 22.06549 
L 93.431378 22.85027 
L 94.021216 24.186071 
L 94.905973 27.018962 
L 96.085649 31.852317 
L 98.739919 44.261997 
L 101.394189 56.154454 
L 104.638297 70.530511 
L 106.407811 79.457021 
L 109.062081 94.255474 
L 112.601108 113.806556 
L 114.960459 125.612731 
L 117.024892 134.923496 
L 119.384243 144.573599 
L 122.333432 155.655945 
L 126.167378 169.081624 
L 128.821649 177.712517 
L 130.591162 182.724661 
L 132.065757 186.261064 
L 133.540351 189.215701 
L 135.014946 191.694776 
L 137.079378 194.679366 
L 141.208243 200.162434 
L 142.977757 202.192723 
L 144.157432 203.263639 
L 145.337108 204.049164 
L 146.516784 204.550228 
L 147.696459 204.818341 
L 150.055811 205.040559 
L 151.530405 205.27124 
L 153.005 205.742771 
L 154.479595 206.477449 
L 156.544027 207.812516 
L 161.26273 210.975798 
L 163.622081 212.229514 
L 165.686514 213.062811 
L 167.750946 213.633199 
L 169.520459 213.904524 
L 171.289973 213.96833 
L 173.354405 213.807781 
L 178.368027 213.246916 
L 180.432459 213.352744 
L 187.215595 214.036923 
L 190.164784 213.871129 
L 194.588568 213.619008 
L 197.537757 213.679446 
L 200.781865 213.973303 
L 206.975162 214.610884 
L 211.104027 214.737881 
L 220.541432 214.725784 
L 224.965216 214.536235 
L 232.928027 214.023216 
L 235.877216 214.224654 
L 241.480676 214.664185 
L 246.494297 214.750958 
L 280.704892 214.756364 
L 305.773 214.756364 
L 305.773 214.756364 
" style="fill:none;stroke:#fa8174;stroke-dasharray:3.7,1.6;stroke-dashoffset:0;"/>
   </g>
   <g id="line2d_19">
    <path clip-path="url(#p1b6492e2ac)" d="M -1 214.756364 
L 61.449432 214.645544 
L 66.355811 214.42339 
L 69.62673 214.110086 
L 72.897649 213.568294 
L 75.350838 212.944564 
L 77.804027 212.072168 
L 80.257216 210.890438 
L 81.892676 209.90108 
L 83.528135 208.731482 
L 85.163595 207.368026 
L 86.799054 205.800591 
L 89.252243 203.056054 
L 91.705432 199.84511 
L 94.158622 196.202549 
L 96.611811 192.194392 
L 99.88273 186.445634 
L 108.877757 170.344276 
L 112.148676 165.067164 
L 115.419595 160.285349 
L 118.690514 155.995624 
L 121.961432 152.155585 
L 125.232351 148.736905 
L 127.685541 146.463602 
L 130.13873 144.479586 
L 132.591919 142.840786 
L 134.227378 141.971497 
L 135.862838 141.302007 
L 137.498297 140.847508 
L 139.133757 140.618938 
L 140.769216 140.622029 
L 142.404676 140.856929 
L 144.040135 141.318438 
L 145.675595 141.996788 
L 147.311054 142.878832 
L 148.946514 143.949437 
L 151.399703 145.874602 
L 153.852892 148.138753 
L 156.306081 150.698856 
L 159.577 154.508851 
L 162.847919 158.688126 
L 168.572027 166.490627 
L 172.660676 171.959704 
L 175.931595 175.94149 
L 178.384784 178.579387 
L 180.837973 180.871047 
L 183.291162 182.809814 
L 185.744351 184.420329 
L 188.197541 185.750642 
L 190.65073 186.861086 
L 193.921649 188.104514 
L 198.828027 189.693272 
L 215.182622 194.759526 
L 220.089 196.597321 
L 228.266297 199.96398 
L 233.990405 202.209801 
L 238.079054 203.593713 
L 242.167703 204.731133 
L 246.256351 205.608848 
L 250.345 206.255397 
L 256.069108 206.911456 
L 264.246405 207.858124 
L 269.152784 208.675078 
L 274.876892 209.890513 
L 285.507378 212.233169 
L 289.596027 212.899788 
L 293.684676 213.352541 
L 297.773324 213.589285 
L 302.679703 213.640091 
L 322.305216 213.515651 
L 334.571162 214.038701 
L 345.201649 214.349697 
L 356.649865 214.439849 
L 376.275378 214.556708 
L 394.325 214.736093 
L 394.325 214.736093 
" style="fill:none;stroke:#add8e6;stroke-linecap:square;"/>
   </g>
   <g id="line2d_20">
    <path clip-path="url(#p1b6492e2ac)" d="M 84.805 214.741442 
L 91.501 214.590752 
L 98.197 213.837349 
L 104.893 211.356484 
L 111.589 205.32302 
L 118.285 193.817273 
L 124.981 176.024471 
L 131.677 153.347248 
L 138.373 129.563148 
L 145.069 109.699445 
L 151.765 98.159514 
L 158.461 97.116019 
L 165.157 105.954283 
L 171.853 121.869135 
L 178.549 141.120374 
L 185.245 160.273362 
L 191.941 176.964074 
L 198.637 190.083677 
L 205.333 199.543671 
L 212.029 205.870193 
L 218.725 209.82523 
L 225.421 212.150272 
L 232.117 213.441656 
L 238.813 214.121963 
L 245.509 214.462995 
L 252.205 214.626126 
L 258.901 214.70077 
L 265.597 214.733512 
L 272.293 214.747306 
L 278.989 214.752897 
L 285.685 214.755081 
L 292.381 214.755905 
L 299.077 214.756204 
L 305.773 214.75631 
L 312.469 214.756346 
L 319.165 214.756358 
L 325.861 214.756362 
L 332.557 214.756363 
L 339.253 214.756363 
L 345.949 214.756364 
L 352.645 214.756364 
L 359.341 214.756364 
L 366.037 214.756364 
L 372.733 214.756364 
L 379.429 214.756364 
L 386.125 214.756364 
L 392.821 214.756364 
L 394.325 214.756364 
" style="fill:none;stroke:#008000;stroke-linecap:square;"/>
   </g>
   <g id="line2d_21">
    <path clip-path="url(#p1b6492e2ac)" d="M 11.149 214.756364 
L 89.329324 214.654314 
L 92.546622 214.412582 
L 95.120459 213.993592 
L 99.302946 213.066429 
L 101.233324 212.458944 
L 103.163703 211.633292 
L 105.094081 210.573114 
L 106.381 209.651029 
L 107.667919 208.478195 
L 109.598297 206.348409 
L 114.424243 200.732079 
L 116.032892 198.201368 
L 119.250189 192.543482 
L 120.537108 189.853351 
L 121.824027 186.539304 
L 124.076135 179.77283 
L 126.971703 170.746999 
L 128.258622 165.744372 
L 131.475919 152.241143 
L 132.762838 148.23984 
L 134.693216 142.450812 
L 135.980135 137.6951 
L 137.588784 131.671134 
L 138.553973 128.80568 
L 139.519162 126.582371 
L 141.127811 123.052064 
L 142.093 120.269138 
L 144.988568 110.960836 
L 145.953757 109.01438 
L 147.884135 105.765687 
L 148.849324 103.389143 
L 151.101432 97.023923 
L 151.744892 95.916494 
L 152.388351 95.344227 
L 153.031811 95.222081 
L 154.962189 95.450394 
L 155.605649 95.11952 
L 157.857757 93.420804 
L 158.179486 93.477705 
L 158.501216 93.677687 
L 159.144676 94.518015 
L 159.788135 95.872127 
L 162.361973 102.189839 
L 163.327162 103.635814 
L 164.614081 105.450579 
L 165.257541 106.740241 
L 166.22273 109.395812 
L 169.118297 118.595739 
L 170.083486 120.628987 
L 171.692135 123.732232 
L 172.657324 126.191264 
L 175.874622 135.557602 
L 177.161541 138.012168 
L 178.448459 140.436915 
L 179.413649 142.784174 
L 181.344027 148.483832 
L 182.630946 151.855108 
L 184.239595 155.228137 
L 185.204784 157.390259 
L 186.169973 160.041139 
L 187.778622 165.362187 
L 189.38727 170.484517 
L 190.674189 173.819698 
L 194.213216 182.412209 
L 195.821865 186.169101 
L 197.108784 188.517991 
L 198.717432 190.834738 
L 201.29127 194.145921 
L 202.578189 195.497494 
L 206.117216 198.818204 
L 207.404135 200.572249 
L 209.977973 204.183778 
L 211.264892 205.558523 
L 212.873541 206.884324 
L 214.482189 207.93566 
L 216.090838 208.733905 
L 218.342946 209.527337 
L 221.238514 210.607222 
L 223.812351 211.523416 
L 228.960027 212.926947 
L 231.533865 213.458052 
L 235.716351 214.034787 
L 239.255378 214.322732 
L 245.046514 214.535307 
L 260.489541 214.751736 
L 300.705757 214.756364 
L 332.557 214.756364 
L 332.557 214.756364 
" style="fill:none;stroke:#ff0000;stroke-dasharray:3.7,1.6;stroke-dashoffset:0;"/>
   </g>
   <g id="patch_3">
    <path d="M 51.325 224.64 
L 51.325 7.2 
" style="fill:none;stroke:#ffffff;stroke-linecap:square;stroke-linejoin:miter;stroke-width:0.8;"/>
   </g>
   <g id="patch_4">
    <path d="M 386.125 224.64 
L 386.125 7.2 
" style="fill:none;stroke:#ffffff;stroke-linecap:square;stroke-linejoin:miter;stroke-width:0.8;"/>
   </g>
   <g id="patch_5">
    <path d="M 51.325 224.64 
L 386.125 224.64 
" style="fill:none;stroke:#ffffff;stroke-linecap:square;stroke-linejoin:miter;stroke-width:0.8;"/>
   </g>
   <g id="patch_6">
    <path d="M 51.325 7.2 
L 386.125 7.2 
" style="fill:none;stroke:#ffffff;stroke-linecap:square;stroke-linejoin:miter;stroke-width:0.8;"/>
   </g>
   <g id="legend_1">
    <g id="patch_7">
     <path d="M 287.125 110.778125 
L 379.125 110.778125 
Q 381.125 110.778125 381.125 108.778125 
L 381.125 14.2 
Q 381.125 12.2 379.125 12.2 
L 287.125 12.2 
Q 285.125 12.2 285.125 14.2 
L 285.125 108.778125 
Q 285.125 110.778125 287.125 110.778125 
z
" style="opacity:0.8;stroke:#cccccc;stroke-linejoin:miter;"/>
    </g>
    <g id="line2d_22">
     <path d="M 289.125 19.7 
L 309.125 19.7 
" style="fill:none;stroke:#8dd3c7;stroke-dasharray:3.7,1.6;stroke-dashoffset:0;"/>
    </g>
    <g id="line2d_23"/>
    <g id="text_16">
     <!-- 2009 -->
     <g style="fill:#ffffff;" transform="translate(317.125 23.2)scale(0.1 -0.1)">
      <defs>
       <path d="M 12.5 1.171875 
Q 21.09375 15.625 26.5625 27.34375 
Q 16.796875 25.78125 10.34375 29.875 
Q 3.90625 33.984375 2.53125 41.015625 
Q 1.171875 48.046875 2.734375 53.703125 
Q 4.296875 59.375 7.609375 63.078125 
Q 10.9375 66.796875 15.625 68.359375 
Q 20.3125 69.921875 24.015625 69.921875 
Q 27.734375 69.921875 31.640625 68.359375 
Q 35.546875 66.796875 38.671875 63.671875 
Q 41.796875 60.546875 42.96875 57.21875 
Q 44.140625 53.90625 44.140625 48.625 
Q 44.140625 43.359375 40.234375 35.15625 
Q 36.328125 26.953125 21.09375 1.171875 
z
M 9.765625 50 
Q 10.9375 39.84375 14.640625 36.515625 
Q 18.359375 33.203125 22.65625 33.59375 
Q 26.953125 33.984375 29.484375 35.9375 
Q 32.03125 37.890625 34.375 42.578125 
Q 35.9375 48.4375 35.15625 52.53125 
Q 34.375 56.640625 31.046875 59.375 
Q 27.734375 62.109375 23.828125 62.109375 
Q 21.484375 62.5 17.765625 60.9375 
Q 14.0625 59.375 11.90625 54.6875 
Q 9.765625 50 10.9375 39.84375 
z
" id="SimHei-57"/>
      </defs>
      <use xlink:href="#SimHei-50"/>
      <use x="50" xlink:href="#SimHei-48"/>
      <use x="100" xlink:href="#SimHei-48"/>
      <use x="150" xlink:href="#SimHei-57"/>
     </g>
    </g>
    <g id="line2d_24">
     <path d="M 289.125 32.95 
L 309.125 32.95 
" style="fill:none;stroke:#feffb3;stroke-dasharray:3.7,1.6;stroke-dashoffset:0;"/>
    </g>
    <g id="line2d_25"/>
    <g id="text_17">
     <!-- 2010 -->
     <g style="fill:#ffffff;" transform="translate(317.125 36.45)scale(0.1 -0.1)">
      <use xlink:href="#SimHei-50"/>
      <use x="50" xlink:href="#SimHei-48"/>
      <use x="100" xlink:href="#SimHei-49"/>
      <use x="150" xlink:href="#SimHei-48"/>
     </g>
    </g>
    <g id="line2d_26">
     <path d="M 289.125 46.2 
L 309.125 46.2 
" style="fill:none;stroke:#bfbbd9;stroke-dasharray:3.7,1.6;stroke-dashoffset:0;"/>
    </g>
    <g id="line2d_27"/>
    <g id="text_18">
     <!-- 2011 -->
     <g style="fill:#ffffff;" transform="translate(317.125 49.7)scale(0.1 -0.1)">
      <use xlink:href="#SimHei-50"/>
      <use x="50" xlink:href="#SimHei-48"/>
      <use x="100" xlink:href="#SimHei-49"/>
      <use x="150" xlink:href="#SimHei-49"/>
     </g>
    </g>
    <g id="line2d_28">
     <path d="M 289.125 59.45 
L 309.125 59.45 
" style="fill:none;stroke:#fa8174;stroke-dasharray:3.7,1.6;stroke-dashoffset:0;"/>
    </g>
    <g id="line2d_29"/>
    <g id="text_19">
     <!-- 2012 -->
     <g style="fill:#ffffff;" transform="translate(317.125 62.95)scale(0.1 -0.1)">
      <use xlink:href="#SimHei-50"/>
      <use x="50" xlink:href="#SimHei-48"/>
      <use x="100" xlink:href="#SimHei-49"/>
      <use x="150" xlink:href="#SimHei-50"/>
     </g>
    </g>
    <g id="line2d_30">
     <path d="M 289.125 73.278125 
L 309.125 73.278125 
" style="fill:none;stroke:#add8e6;stroke-linecap:square;"/>
    </g>
    <g id="line2d_31"/>
    <g id="text_20">
     <!-- 总和 -->
     <g style="fill:#ffffff;" transform="translate(317.125 76.778125)scale(0.1 -0.1)">
      <defs>
       <path d="M 71.09375 75.78125 
Q 68.359375 72.65625 62.890625 60.9375 
L 79.6875 60.9375 
Q 79.296875 53.515625 79.296875 46.09375 
Q 79.296875 39.0625 79.6875 31.640625 
L 18.359375 31.640625 
Q 18.75 39.84375 18.75 46.875 
Q 18.75 54.296875 18.359375 60.9375 
L 33.984375 60.9375 
Q 29.6875 67.96875 23.828125 74.21875 
Q 26.5625 75.78125 29.296875 78.90625 
Q 36.71875 71.09375 40.234375 65.625 
Q 37.5 63.671875 35.15625 60.9375 
L 55.46875 60.9375 
Q 60.546875 73.4375 61.71875 79.6875 
Q 67.1875 76.953125 71.09375 75.78125 
z
M 71.875 38.28125 
L 71.875 55.078125 
L 25.78125 55.078125 
L 25.78125 38.28125 
z
M 35.546875 22.65625 
Q 35.15625 16.40625 35.15625 10.546875 
Q 35.15625 4.6875 35.34375 1.75 
Q 35.546875 -1.171875 41.796875 -1.171875 
L 62.5 -1.171875 
Q 67.578125 -1.171875 68.75 8.59375 
Q 72.65625 6.25 76.953125 5.078125 
Q 74.609375 -3.125 71.28125 -5.265625 
Q 67.96875 -7.421875 62.5 -7.03125 
L 36.328125 -7.03125 
Q 28.90625 -7.03125 28.515625 -2.734375 
Q 28.125 1.5625 28.125 8.203125 
Q 28.125 15.234375 27.734375 22.65625 
L 35.546875 22.65625 
z
M 21.09375 20.703125 
Q 16.40625 4.6875 12.890625 -3.90625 
Q 9.765625 -2.34375 5.859375 -0.78125 
Q 10.546875 8.203125 14.0625 23.4375 
Q 17.1875 22.265625 21.09375 20.703125 
z
M 77.34375 24.609375 
Q 89.0625 12.890625 93.75 7.03125 
Q 91.015625 4.296875 87.890625 1.5625 
Q 83.984375 7.03125 71.875 19.921875 
Q 74.21875 21.484375 77.34375 24.609375 
z
M 52.34375 8.984375 
Q 46.484375 18.359375 41.796875 23.4375 
Q 44.140625 25.78125 46.875 28.125 
Q 50.390625 24.609375 58.59375 13.671875 
Q 55.078125 12.109375 52.34375 8.984375 
z
" id="SimHei-24635"/>
       <path d="M 91.796875 65.625 
Q 91.40625 57.8125 91.40625 51.171875 
L 91.40625 10.9375 
Q 91.40625 3.90625 91.796875 -0.390625 
L 83.984375 -0.390625 
L 83.984375 8.984375 
L 65.234375 8.984375 
L 65.234375 -1.171875 
L 57.8125 -1.171875 
Q 58.203125 7.8125 58.203125 9.765625 
L 58.203125 51.171875 
Q 58.203125 57.8125 57.8125 65.625 
L 91.796875 65.625 
z
M 51.171875 69.53125 
Q 47.65625 69.53125 35.15625 67.578125 
L 35.15625 50 
L 41.015625 50 
Q 46.875 50 53.515625 50.390625 
L 53.515625 43.359375 
Q 46.875 43.75 41.40625 43.75 
L 35.15625 43.75 
L 35.15625 3.515625 
Q 35.15625 -3.125 35.546875 -8.59375 
L 27.734375 -8.59375 
Q 28.125 -2.34375 28.125 3.515625 
L 28.125 28.90625 
Q 22.265625 17.96875 10.546875 3.90625 
Q 8.59375 6.640625 4.296875 9.375 
Q 12.890625 17.578125 19.328125 28.3125 
Q 25.78125 39.0625 26.5625 43.75 
L 19.53125 43.75 
Q 10.9375 43.75 7.03125 43.359375 
L 7.03125 50.390625 
Q 11.328125 50 19.53125 50 
L 28.125 50 
L 28.125 66.40625 
Q 23.046875 65.625 12.109375 64.453125 
Q 11.328125 68.359375 9.765625 71.484375 
Q 17.1875 71.875 28.515625 73.4375 
Q 39.84375 75 47.65625 78.125 
Q 48.4375 73.828125 51.171875 69.53125 
z
M 83.984375 15.234375 
L 83.984375 58.984375 
L 65.234375 58.984375 
L 65.234375 15.234375 
z
M 48.046875 15.625 
Q 42.96875 25.390625 36.328125 32.8125 
Q 38.671875 34.375 42.1875 37.5 
Q 49.609375 29.296875 54.6875 20.703125 
Q 50.78125 18.359375 48.046875 15.625 
z
" id="SimHei-21644"/>
      </defs>
      <use xlink:href="#SimHei-24635"/>
      <use x="100" xlink:href="#SimHei-21644"/>
     </g>
    </g>
    <g id="line2d_32">
     <path d="M 289.125 87.653125 
L 309.125 87.653125 
" style="fill:none;stroke:#008000;stroke-linecap:square;"/>
    </g>
    <g id="line2d_33"/>
    <g id="text_21">
     <!-- 泊松分布密度 -->
     <g style="fill:#ffffff;" transform="translate(317.125 91.153125)scale(0.1 -0.1)">
      <defs>
       <path d="M 69.53125 79.6875 
Q 67.578125 77.34375 66.203125 73.046875 
Q 64.84375 68.75 63.671875 64.453125 
L 91.40625 64.453125 
Q 91.015625 54.6875 91.015625 45.703125 
L 91.015625 7.03125 
Q 91.015625 -1.171875 91.40625 -9.375 
L 83.203125 -9.375 
L 83.203125 0.78125 
L 47.265625 0.78125 
L 47.265625 -9.765625 
L 39.0625 -9.765625 
Q 39.84375 -3.125 39.84375 5.46875 
L 39.84375 45.703125 
Q 39.84375 57.8125 39.0625 64.453125 
L 55.859375 64.453125 
Q 57.421875 71.875 58.203125 82.03125 
Q 64.453125 80.46875 69.53125 79.6875 
z
M 83.203125 7.421875 
L 83.203125 29.6875 
L 47.265625 29.6875 
L 47.265625 7.421875 
z
M 83.203125 36.328125 
L 83.203125 57.8125 
L 47.265625 57.8125 
L 47.265625 36.328125 
z
M 28.90625 24.609375 
Q 25 19.53125 20.109375 8 
Q 15.234375 -3.515625 14.0625 -8.59375 
Q 9.375 -5.46875 3.515625 -3.125 
Q 7.421875 1.5625 12.890625 12.296875 
Q 18.359375 23.046875 20.703125 30.078125 
Q 25 26.5625 28.90625 24.609375 
z
M 10.15625 55.078125 
Q 18.75 50.390625 29.296875 43.359375 
Q 25 40.234375 23.046875 36.328125 
Q 14.453125 43.359375 4.296875 48.828125 
Q 7.421875 51.5625 10.15625 55.078125 
z
M 17.1875 78.90625 
Q 25.390625 72.65625 33.984375 65.234375 
Q 30.859375 62.5 27.34375 58.59375 
Q 19.140625 66.796875 11.328125 72.265625 
Q 14.453125 75.390625 17.1875 78.90625 
z
" id="SimHei-27850"/>
       <path d="M 21.09375 58.59375 
Q 21.09375 74.609375 20.703125 80.859375 
L 28.90625 80.859375 
Q 28.515625 74.609375 28.515625 58.59375 
Q 34.375 58.59375 40.234375 58.984375 
L 40.234375 51.953125 
Q 34.375 52.34375 28.515625 52.34375 
L 28.515625 38.28125 
Q 29.6875 39.84375 32.8125 42.578125 
Q 37.109375 37.109375 44.53125 25.390625 
Q 42.1875 23.4375 38.671875 21.09375 
Q 34.765625 28.515625 28.515625 36.71875 
L 28.515625 7.421875 
Q 28.515625 -0.390625 28.90625 -9.375 
L 20.703125 -9.375 
Q 21.09375 0 21.09375 7.421875 
L 21.09375 33.59375 
Q 16.796875 22.265625 8.984375 10.546875 
Q 6.25 14.453125 2.734375 16.015625 
Q 10.15625 25.390625 14.640625 37.109375 
Q 19.140625 48.828125 19.53125 52.34375 
Q 12.890625 52.34375 5.859375 51.953125 
L 5.859375 58.984375 
Q 12.890625 58.59375 21.09375 58.59375 
z
M 69.140625 39.84375 
Q 65.625 36.328125 61.125 24.609375 
Q 56.640625 12.890625 52.34375 3.515625 
L 79.6875 6.25 
Q 77.734375 11.328125 72.265625 21.875 
Q 75 22.65625 79.296875 25 
Q 82.8125 19.140625 86.90625 10.546875 
Q 91.015625 1.953125 93.359375 -3.90625 
Q 89.453125 -5.859375 85.9375 -7.8125 
Q 83.984375 -3.125 82.421875 0.390625 
Q 63.28125 -1.5625 56.4375 -2.921875 
Q 49.609375 -4.296875 46.484375 -6.25 
Q 44.53125 -1.5625 41.40625 2.34375 
Q 44.53125 3.90625 47.453125 9.171875 
Q 50.390625 14.453125 54.296875 25.78125 
Q 58.203125 37.109375 58.59375 43.75 
Q 64.453125 41.40625 69.140625 39.84375 
z
M 73.828125 80.078125 
Q 74.21875 72.65625 79.875 60.15625 
Q 85.546875 47.65625 96.875 41.40625 
Q 91.015625 39.453125 89.0625 35.15625 
Q 83.203125 39.84375 78.90625 46.28125 
Q 74.609375 52.734375 71.484375 59.953125 
Q 68.359375 67.1875 66.40625 78.515625 
Q 70.3125 79.296875 73.828125 80.078125 
z
M 60.546875 73.828125 
Q 59.375 71.875 57.8125 66.015625 
Q 56.25 60.15625 52.53125 50 
Q 48.828125 39.84375 44.921875 34.765625 
Q 41.796875 36.71875 37.890625 37.890625 
Q 42.578125 44.140625 46.484375 54.875 
Q 50.390625 65.625 51.953125 76.5625 
Q 55.859375 74.609375 60.546875 73.828125 
z
" id="SimHei-26494"/>
       <path d="M 15.625 -10.15625 
Q 12.890625 -5.859375 8.984375 -3.515625 
Q 15.234375 -1.171875 20.3125 2.140625 
Q 25.390625 5.46875 29.296875 10.34375 
Q 33.203125 15.234375 35.15625 21.09375 
Q 37.109375 26.953125 37.890625 35.546875 
Q 28.90625 35.546875 23.4375 35.15625 
L 23.4375 43.359375 
Q 29.6875 42.96875 39.453125 42.96875 
L 78.515625 42.96875 
Q 77.734375 37.109375 77.34375 32.8125 
L 74.21875 3.90625 
Q 73.4375 -3.125 67.96875 -5.46875 
Q 62.5 -7.8125 55.859375 -8.203125 
Q 55.46875 -4.296875 51.953125 0.78125 
Q 60.15625 0.390625 63.078125 1.359375 
Q 66.015625 2.34375 66.796875 8.203125 
L 69.53125 35.546875 
L 46.09375 35.546875 
Q 44.921875 25.390625 42.765625 18.546875 
Q 40.625 11.71875 36.71875 6.640625 
Q 32.8125 1.5625 27.34375 -2.734375 
Q 21.875 -7.03125 15.625 -10.15625 
z
M 61.71875 80.859375 
Q 64.453125 72.65625 72.84375 62.109375 
Q 81.25 51.5625 96.484375 43.75 
Q 93.359375 41.015625 90.234375 35.546875 
Q 83.203125 40.625 77.921875 45.109375 
Q 72.65625 49.609375 69.140625 53.515625 
Q 65.625 57.421875 61.328125 64.640625 
Q 57.03125 71.875 54.296875 78.125 
Q 58.59375 79.296875 61.71875 80.859375 
z
M 42.1875 75.390625 
Q 38.671875 69.140625 36.328125 64.453125 
Q 33.984375 59.765625 31.640625 56.046875 
Q 29.296875 52.34375 24.609375 46.09375 
Q 19.921875 39.84375 13.28125 33.203125 
Q 9.765625 36.71875 6.25 38.671875 
Q 14.0625 45.703125 18.546875 51.5625 
Q 23.046875 57.421875 27.140625 64.25 
Q 31.25 71.09375 34.375 79.296875 
Q 37.5 76.953125 42.1875 75.390625 
z
" id="SimHei-20998"/>
       <path d="M 37.109375 66.015625 
Q 41.40625 74.609375 43.359375 82.8125 
Q 48.828125 80.859375 53.125 79.296875 
Q 51.171875 77.734375 46.09375 66.015625 
L 75 66.015625 
Q 86.71875 66.015625 94.140625 66.40625 
L 94.140625 59.375 
L 42.578125 59.375 
Q 36.328125 48.4375 30.859375 41.796875 
L 51.171875 41.796875 
Q 51.171875 50.390625 50.78125 55.859375 
L 58.984375 55.859375 
Q 58.59375 50.390625 58.59375 41.796875 
L 85.9375 41.796875 
Q 85.546875 34.765625 85.546875 27.734375 
L 85.546875 11.71875 
Q 85.546875 4.296875 81.4375 2.34375 
Q 77.34375 0.390625 69.53125 -0.390625 
Q 68.75 5.078125 66.015625 8.59375 
Q 75 8.59375 76.75 9.765625 
Q 78.515625 10.9375 78.125 16.015625 
L 78.125 35.15625 
L 58.59375 35.15625 
L 58.59375 8.59375 
Q 58.59375 0.390625 58.984375 -9.375 
L 50.78125 -9.375 
Q 51.171875 0.390625 51.171875 8.59375 
L 51.171875 35.15625 
L 32.8125 35.15625 
L 32.8125 0 
L 25 0 
Q 25.390625 8.203125 25.390625 16.015625 
L 25.390625 34.765625 
Q 20.3125 28.90625 10.15625 19.921875 
Q 7.421875 23.046875 3.125 25.78125 
Q 11.71875 31.640625 19.71875 40.03125 
Q 27.734375 48.4375 33.59375 59.375 
L 24.21875 59.375 
Q 14.453125 59.375 6.25 58.984375 
L 6.25 66.40625 
Q 14.453125 66.015625 24.21875 66.015625 
z
" id="SimHei-24067"/>
       <path d="M 75.390625 52.34375 
Q 69.921875 48.828125 61.90625 42.96875 
Q 53.90625 37.109375 43.359375 31.640625 
L 62.890625 31.640625 
Q 71.09375 31.640625 71.09375 40.625 
Q 75 38.28125 80.46875 36.328125 
Q 76.5625 27.734375 73.625 26.359375 
Q 70.703125 25 65.625 25 
L 44.921875 25 
Q 34.765625 24.609375 33.984375 26.171875 
Q 17.578125 20.703125 8.984375 18.359375 
Q 7.421875 22.265625 3.90625 26.171875 
Q 13.28125 26.953125 19.71875 28.90625 
Q 26.171875 30.859375 31.25 32.8125 
L 31.25 42.96875 
Q 31.25 46.875 30.859375 53.125 
L 39.84375 53.125 
Q 39.453125 47.265625 39.453125 43.359375 
L 39.453125 36.71875 
Q 45.3125 39.453125 53.515625 45.109375 
Q 61.71875 50.78125 67.578125 58.984375 
Q 69.921875 56.640625 75.390625 52.34375 
z
M 19.140625 8.59375 
Q 19.140625 12.890625 18.75 17.578125 
L 27.34375 17.578125 
Q 26.953125 12.109375 26.953125 8.203125 
L 26.953125 0 
L 48.046875 0 
L 48.046875 10.9375 
Q 48.046875 14.84375 47.265625 21.484375 
L 56.25 21.484375 
Q 55.859375 17.1875 55.859375 10.546875 
L 55.859375 0 
L 77.734375 0 
L 77.734375 9.765625 
Q 77.734375 13.671875 77.34375 18.75 
L 85.9375 18.75 
Q 85.546875 14.0625 85.546875 9.375 
L 85.546875 -3.515625 
Q 85.546875 -6.640625 85.9375 -10.9375 
L 77.734375 -10.9375 
L 77.734375 -6.25 
L 18.75 -6.25 
Q 19.140625 -2.34375 19.140625 1.171875 
z
M 83.984375 55.859375 
L 83.984375 64.84375 
L 17.96875 64.84375 
L 17.96875 55.46875 
L 9.375 55.46875 
Q 9.765625 57.8125 9.765625 62.5 
Q 9.765625 67.1875 9.375 71.484375 
L 46.484375 71.484375 
Q 45.3125 75 43.359375 78.90625 
Q 46.875 80.078125 51.953125 81.640625 
Q 53.515625 79.296875 55.859375 71.484375 
L 92.578125 71.484375 
Q 92.1875 66.40625 92.1875 62.890625 
Q 92.1875 59.765625 92.578125 55.859375 
z
M 25.78125 51.171875 
Q 23.4375 44.53125 19.140625 35.15625 
Q 14.0625 36.71875 10.546875 37.5 
Q 14.84375 43.75 17.1875 53.125 
Q 21.09375 51.953125 25.78125 51.171875 
z
M 85.15625 51.953125 
Q 90.234375 45.703125 95.3125 38.28125 
Q 91.015625 36.71875 87.890625 34.375 
Q 83.59375 41.796875 78.125 47.65625 
Q 81.25 49.609375 85.15625 51.953125 
z
M 50.390625 49.21875 
Q 44.921875 56.25 40.234375 59.765625 
Q 43.359375 61.71875 46.484375 64.453125 
Q 49.609375 62.109375 57.03125 54.296875 
Q 53.90625 51.5625 50.390625 49.21875 
z
" id="SimHei-23494"/>
       <path d="M 27.34375 26.171875 
Q 38.28125 25.78125 44.921875 25.78125 
L 81.25 25.78125 
Q 77.734375 19.53125 72.65625 13.28125 
Q 67.578125 7.03125 62.890625 3.125 
Q 67.96875 0.78125 77.34375 -0.78125 
Q 86.71875 -2.34375 95.3125 -2.34375 
Q 92.96875 -4.6875 91.015625 -10.15625 
Q 79.6875 -8.59375 71.09375 -6.4375 
Q 62.5 -4.296875 56.640625 -1.5625 
Q 48.4375 -5.078125 40.421875 -7.21875 
Q 32.421875 -9.375 23.828125 -10.546875 
Q 22.65625 -7.421875 19.140625 -3.90625 
Q 26.171875 -3.90625 35.15625 -1.953125 
Q 44.140625 0 50.78125 3.125 
Q 44.140625 8.59375 37.5 19.921875 
L 27.34375 19.53125 
z
M 46.484375 79.296875 
Q 50.78125 80.46875 54.296875 82.03125 
Q 56.640625 77.734375 58.984375 70.703125 
L 73.4375 70.703125 
Q 77.734375 70.703125 89.0625 71.09375 
L 89.0625 64.0625 
Q 78.125 64.453125 72.65625 64.453125 
L 21.484375 64.453125 
Q 21.484375 46.875 21.09375 36.125 
Q 20.703125 25.390625 18.9375 14.84375 
Q 17.1875 4.296875 11.328125 -8.203125 
Q 7.8125 -5.859375 3.90625 -4.6875 
Q 10.15625 6.25 11.90625 16.796875 
Q 13.671875 27.34375 13.859375 43.75 
Q 14.0625 60.15625 13.671875 70.703125 
L 50 70.703125 
Q 48.4375 75.78125 46.484375 79.296875 
z
M 38.671875 51.5625 
Q 38.671875 57.8125 38.28125 61.328125 
L 46.484375 61.328125 
Q 46.09375 58.203125 46.09375 51.5625 
L 67.1875 51.5625 
Q 67.1875 57.8125 66.796875 61.71875 
L 75 61.71875 
Q 74.609375 57.03125 74.609375 51.5625 
Q 83.203125 51.5625 89.453125 51.953125 
L 89.453125 45.3125 
Q 83.59375 45.703125 74.609375 45.703125 
Q 74.609375 35.15625 75 30.46875 
L 38.28125 30.46875 
Q 38.671875 36.71875 38.671875 45.703125 
Q 33.984375 45.703125 25 45.3125 
L 25 51.953125 
Q 33.984375 51.5625 38.671875 51.5625 
z
M 67.1875 36.71875 
L 67.1875 45.703125 
L 46.09375 45.703125 
L 46.09375 36.71875 
z
M 44.921875 19.921875 
Q 50 12.109375 57.03125 6.640625 
Q 62.890625 10.9375 69.140625 19.921875 
L 45.3125 19.921875 
z
" id="SimHei-24230"/>
      </defs>
      <use xlink:href="#SimHei-27850"/>
      <use x="100" xlink:href="#SimHei-26494"/>
      <use x="200" xlink:href="#SimHei-20998"/>
      <use x="300" xlink:href="#SimHei-24067"/>
      <use x="400" xlink:href="#SimHei-23494"/>
      <use x="500" xlink:href="#SimHei-24230"/>
     </g>
    </g>
    <g id="line2d_34">
     <path d="M 289.125 102.028125 
L 309.125 102.028125 
" style="fill:none;stroke:#ff0000;stroke-dasharray:3.7,1.6;stroke-dashoffset:0;"/>
    </g>
    <g id="line2d_35"/>
    <g id="text_22">
     <!-- 模拟分布密度 -->
     <g style="fill:#ffffff;" transform="translate(317.125 105.528125)scale(0.1 -0.1)">
      <defs>
       <path d="M 89.0625 57.421875 
Q 88.671875 53.125 88.671875 42.578125 
Q 88.671875 32.03125 89.0625 26.953125 
L 68.359375 26.953125 
Q 67.96875 22.65625 67.578125 18.75 
L 81.640625 18.75 
Q 89.84375 18.75 94.140625 19.140625 
L 94.140625 12.890625 
Q 89.453125 13.28125 81.640625 13.28125 
L 73.4375 13.28125 
Q 79.296875 5.859375 84.953125 2.140625 
Q 90.625 -1.5625 96.875 -3.125 
Q 93.359375 -5.859375 91.40625 -9.765625 
Q 82.421875 -6.25 75.96875 0.390625 
Q 69.53125 7.03125 67.1875 12.109375 
L 66.015625 12.109375 
Q 62.5 4.296875 55.265625 -0.96875 
Q 48.046875 -6.25 38.671875 -9.765625 
Q 36.71875 -5.859375 33.203125 -3.125 
Q 43.359375 -1.171875 50 3.125 
Q 56.640625 7.421875 58.984375 13.28125 
L 51.953125 13.28125 
Q 43.75 13.28125 37.5 12.890625 
L 37.5 19.140625 
Q 43.75 18.75 52.34375 18.75 
L 60.546875 18.75 
Q 61.328125 23.046875 61.328125 26.953125 
L 42.96875 26.953125 
Q 43.359375 32.421875 43.359375 42.1875 
Q 43.359375 52.34375 42.96875 57.421875 
L 89.0625 57.421875 
z
M 33.984375 25.78125 
Q 31.640625 30.859375 26.171875 39.453125 
L 26.171875 4.6875 
Q 26.171875 -4.6875 26.5625 -8.59375 
L 18.359375 -8.59375 
Q 18.75 -4.296875 18.75 3.90625 
L 18.75 34.765625 
Q 17.578125 31.25 15.03125 26.75 
Q 12.5 22.265625 9.375 16.40625 
Q 7.03125 19.921875 3.125 22.265625 
Q 9.375 28.515625 13.28125 37.890625 
Q 17.1875 47.265625 18.359375 53.515625 
L 14.84375 53.515625 
Q 10.9375 53.515625 6.25 53.125 
L 6.25 59.765625 
Q 10.546875 59.375 12.890625 59.375 
L 18.75 59.375 
L 18.75 67.96875 
Q 18.75 74.609375 18.359375 80.46875 
L 26.5625 80.46875 
Q 26.171875 75.390625 26.171875 69.140625 
L 26.171875 59.375 
Q 32.421875 59.375 37.109375 59.765625 
L 37.109375 53.125 
Q 32.03125 53.515625 26.171875 53.515625 
L 26.171875 40.234375 
Q 28.90625 41.796875 31.25 43.359375 
Q 33.59375 39.453125 35.734375 36.328125 
Q 37.890625 33.203125 39.84375 30.078125 
Q 36.328125 27.734375 33.984375 25.78125 
z
M 52.734375 67.1875 
L 49.609375 67.1875 
Q 42.1875 67.1875 37.890625 66.796875 
L 37.890625 73.046875 
Q 42.1875 72.65625 49.21875 72.65625 
L 52.734375 72.65625 
Q 52.734375 78.125 52.34375 81.640625 
L 59.765625 81.640625 
Q 59.375 78.125 59.375 72.65625 
L 71.09375 72.65625 
Q 71.09375 77.734375 70.703125 81.25 
L 78.515625 81.25 
Q 78.125 76.953125 78.125 72.65625 
L 83.984375 72.65625 
Q 88.28125 72.65625 92.96875 73.046875 
L 92.96875 66.796875 
Q 88.28125 67.1875 83.984375 67.1875 
L 78.125 67.1875 
L 78.125 60.15625 
L 71.09375 60.15625 
L 71.09375 67.1875 
L 59.375 67.1875 
L 59.375 60.546875 
L 52.734375 60.546875 
z
M 82.421875 32.421875 
L 82.421875 39.453125 
L 50 39.453125 
L 50 32.421875 
z
M 82.421875 44.921875 
L 82.421875 51.953125 
L 50 51.953125 
L 50 44.921875 
z
" id="SimHei-27169"/>
       <path d="M 26.171875 1.953125 
Q 26.171875 -2.734375 23.4375 -4.296875 
Q 20.703125 -5.859375 12.5 -7.8125 
Q 11.71875 -3.515625 8.984375 0 
Q 19.140625 0.390625 19.140625 4.296875 
L 19.140625 29.296875 
Q 10.9375 25.390625 7.421875 23.4375 
Q 5.859375 28.125 3.90625 30.859375 
Q 8.203125 32.03125 19.140625 36.328125 
L 19.140625 55.46875 
Q 11.328125 55.46875 5.46875 55.078125 
L 5.46875 62.5 
Q 10.9375 61.71875 19.140625 61.71875 
Q 19.140625 72.265625 18.75 81.640625 
L 26.953125 81.640625 
Q 26.171875 71.09375 26.171875 61.71875 
Q 31.640625 61.71875 36.328125 62.109375 
L 36.328125 55.078125 
Q 30.859375 55.46875 26.171875 55.46875 
L 26.171875 38.671875 
Q 33.59375 41.796875 35.9375 43.75 
Q 35.9375 39.84375 36.328125 36.328125 
Q 33.203125 35.15625 26.171875 32.03125 
z
M 77.34375 78.90625 
Q 82.421875 78.515625 85.9375 78.125 
Q 84.765625 72.65625 85.15625 52.140625 
Q 85.546875 31.640625 82.03125 19.921875 
Q 91.40625 8.59375 96.875 -0.78125 
Q 93.359375 -3.515625 90.234375 -6.25 
Q 86.328125 1.5625 78.90625 12.5 
Q 75 7.03125 69.328125 1.75 
Q 63.671875 -3.515625 51.953125 -10.15625 
Q 49.609375 -7.03125 45.703125 -3.90625 
Q 53.515625 -0.390625 60.9375 5.078125 
Q 68.359375 10.546875 72.0625 16.40625 
Q 75.78125 22.265625 76.953125 33.59375 
Q 78.125 44.921875 77.34375 78.90625 
z
M 39.0625 10.9375 
Q 41.796875 13.671875 41.796875 18.75 
L 41.796875 54.296875 
Q 41.796875 61.328125 41.40625 68.75 
L 49.609375 68.75 
Q 48.828125 62.109375 48.828125 54.6875 
L 48.828125 18.359375 
Q 58.984375 28.90625 63.28125 34.375 
Q 64.84375 30.078125 67.1875 26.953125 
Q 62.890625 23.4375 45.3125 4.6875 
L 39.0625 10.9375 
z
M 59.375 79.6875 
Q 68.359375 62.890625 71.484375 55.46875 
Q 66.40625 53.125 64.0625 51.5625 
Q 60.15625 60.546875 52.734375 76.171875 
Q 55.859375 77.34375 59.375 79.6875 
z
" id="SimHei-25311"/>
      </defs>
      <use xlink:href="#SimHei-27169"/>
      <use x="100" xlink:href="#SimHei-25311"/>
      <use x="200" xlink:href="#SimHei-20998"/>
      <use x="300" xlink:href="#SimHei-24067"/>
      <use x="400" xlink:href="#SimHei-23494"/>
      <use x="500" xlink:href="#SimHei-24230"/>
     </g>
    </g>
   </g>
  </g>
 </g>
 <defs>
  <clipPath id="p1b6492e2ac">
   <rect height="217.44" width="334.8" x="51.325" y="7.2"/>
  </clipPath>
 </defs>
</svg>
